<?xml version="1.0" encoding="UTF-8"?>
<svg id="Warstwa_1" data-name="Warstwa 1" xmlns="http://www.w3.org/2000/svg" viewBox="0 0 67.49 73.63">
  <defs>
    <style>
      .cls-1 {
        fill: #fff;
      }
    </style>
  </defs>
  <path class="cls-1" d="m4.62,19.6c.13.01.26-.03.39-.11.13-.09.23-.22.3-.4.54-1.4.96-2.37,1.29-2.92.32-.55.53-.83.62-.85.05.07.08.28.09.63s-.01.73-.05,1.14c-.08.77-.17,1.6-.27,2.49-.1.89-.19,1.72-.27,2.5-.08.78-.16,1.44-.22,1.98-.06.54-.09.84-.1.89-.04.48.01.87.16,1.16.14.3.38.46.72.48.23.02.48-.1.74-.33.26-.24.54-.69.83-1.36.24-.56.52-1.18.84-1.88.32-.69.65-1.37.97-2.03.32-.66.63-1.25.91-1.79.28-.53.52-.94.7-1.21.23-.35.42-.58.58-.69.16-.11.3-.16.42-.15.13.01.24.12.33.31s.11.5.08.92c-.01.19-.04.47-.08.84-.04.37-.08.79-.13,1.26-.05.47-.1.96-.17,1.47-.06.51-.12,1.01-.17,1.49-.05.48-.09.92-.14,1.32-.04.4-.07.72-.09.96-.04.46,0,.85.14,1.14.13.3.33.46.62.47.13,0,.26-.02.37-.1.12-.07.24-.2.37-.38.13-.18.27-.44.42-.76.15-.32.34-.73.56-1.23.4-.89.79-1.77,1.18-2.63.39-.86.76-1.62,1.11-2.28.35-.66.69-1.19,1-1.58.31-.39.6-.57.85-.54.03,0,.08.01.14.03.06.01.12.07.19.16.06.09.11.24.14.45.03.21.03.51,0,.9-.03.36-.09.86-.2,1.5-.1.64-.18,1.35-.24,2.11-.05.58-.06,1.13-.04,1.67.02.53.1,1.01.24,1.43.14.42.34.75.61,1.01.27.26.63.4,1.08.43.42.03.83-.1,1.23-.37.4-.27.78-.63,1.14-1.08.36-.44.69-.93,1-1.46.06-.11.12-.21.18-.32,0,.28.03.56.07.82.08.51.2.96.38,1.35.18.39.41.69.69.92.28.22.6.35.97.37.46.03.94-.19,1.43-.66.49-.47.94-1.12,1.33-1.94.11.85.33,1.56.66,2.13.33.57.77.88,1.32.91.38.03.76-.09,1.13-.36.37-.26.71-.6,1.04-1.02.33-.42.63-.88.91-1.38.05-.1.1-.19.16-.29,0,.36.02.69.07.98.08.51.2.93.37,1.26.17.33.37.58.61.73.24.15.5.24.77.26.51.03,1.01-.27,1.5-.9.48-.63.99-1.65,1.53-3.07.19,1.55.46,2.66.83,3.35.36.69.83,1.05,1.41,1.08.31.02.61-.08.9-.31.29-.23.58-.52.85-.88s.53-.77.77-1.23c.22-.43.42-.85.61-1.26,0,.11.01.23.03.34.07.72.21,1.37.42,1.95.21.58.5,1.06.87,1.43.36.38.82.58,1.35.61.83.02,1.61-.46,2.34-1.46.72-.99,1.43-2.49,2.13-4.48.02-.05.04-.1.05-.15.01-.05.02-.1.03-.17.01-.19-.01-.37-.08-.53-.07-.17-.17-.26-.3-.27-.09,0-.17.02-.24.09-.08.07-.14.17-.19.32-.21.62-.45,1.23-.7,1.85-.25.62-.53,1.17-.83,1.67-.3.5-.63.89-.97,1.19-.35.3-.72.43-1.11.4-.39-.03-.71-.17-.96-.43-.25-.26-.45-.6-.59-1.01.34-.24.66-.52.97-.86.3-.33.57-.7.8-1.11.23-.41.42-.85.57-1.33.15-.48.25-1,.29-1.56.03-.44.02-.83-.04-1.18-.06-.35-.15-.65-.28-.91-.13-.26-.27-.46-.45-.61-.17-.15-.35-.24-.54-.26-.32-.04-.62.05-.9.27-.29.22-.54.54-.77.96-.23.42-.42.93-.57,1.51-.05.18-.09.37-.12.56-.05.07-.1.16-.14.27-.15.43-.34.94-.57,1.52-.23.58-.49,1.13-.77,1.65-.28.52-.58.95-.89,1.3-.31.35-.62.52-.92.49-.8-.06-1.28-1.74-1.45-5.05.31-.9.65-1.97,1.04-3.21.38-1.24.76-2.59,1.13-4.05.37-1.46.7-2.99,1-4.6.3-1.6.51-3.22.64-4.85.06-.76.08-1.46.07-2.1,0-.64-.06-1.2-.14-1.68-.09-.47-.22-.86-.39-1.15s-.4-.47-.69-.53c-.32-.06-.61.06-.89.37-.28.31-.54.76-.77,1.35-.24.59-.45,1.29-.65,2.09-.2.8-.37,1.66-.52,2.57-.15.91-.28,1.84-.39,2.8-.11.96-.2,1.88-.27,2.77-.16,2.03-.24,3.88-.25,5.54,0,1.66.02,3.12.07,4.39-.35,1.05-.66,1.89-.92,2.53-.27.64-.51,1.13-.72,1.48-.21.35-.4.57-.57.68s-.33.16-.47.15c-.35-.03-.6-.25-.76-.67-.15-.42-.2-.99-.15-1.72.07-.88.21-1.64.43-2.26.22-.62.47-1.12.76-1.51.29-.39.59-.67.91-.85.32-.18.61-.29.88-.32.13-.01.25-.1.34-.24.09-.15.14-.32.16-.52.02-.23-.02-.42-.1-.58-.09-.16-.19-.25-.33-.26-.41-.05-.83.07-1.27.35-.44.29-.86.71-1.25,1.27-.29.41-.54.9-.77,1.45-.03.02-.06.03-.09.06-.09.08-.17.2-.23.35-.1.27-.23.59-.38.95-.15.37-.32.75-.5,1.14-.19.4-.39.79-.61,1.17-.22.39-.45.73-.68,1.03-.23.3-.47.54-.7.71-.24.18-.46.25-.69.24-.35-.02-.61-.23-.78-.61-.17-.39-.29-.83-.34-1.35-.06-.51-.08-1.03-.07-1.54.01-.52.02-.91.04-1.2,0-.21-.03-.4-.12-.57-.09-.17-.2-.27-.33-.28-.14-.01-.27.05-.39.18-.12.13-.19.3-.23.51-.13.77-.3,1.43-.51,1.99-.21.55-.44,1.01-.68,1.37-.24.36-.48.62-.72.78-.24.16-.45.24-.63.23-.25-.02-.45-.11-.6-.27-.16-.16-.27-.37-.35-.62-.08-.25-.13-.52-.14-.82-.02-.3-.01-.59,0-.88.07-.92.23-1.72.48-2.37.25-.66.53-1.19.85-1.61.32-.42.66-.71,1.01-.89s.68-.24.98-.21c.2.02.38.07.53.16.15.08.28.18.39.28.11.1.19.2.25.29.06.09.1.15.12.18.09.17.21.27.37.29.14.01.27-.06.39-.22.12-.16.18-.35.2-.57.02-.21-.02-.41-.11-.62,0-.02-.05-.09-.14-.23-.09-.14-.21-.29-.37-.46-.16-.17-.37-.33-.6-.49-.24-.16-.51-.25-.81-.29-.44-.05-.92.05-1.42.29-.51.25-.99.65-1.44,1.21-.37.46-.7,1.03-.99,1.7-.03.01-.05.02-.08.04-.1.08-.18.2-.24.37-.1.27-.23.59-.39.96-.16.38-.34.77-.55,1.18-.2.41-.43.83-.67,1.24-.24.41-.49.78-.75,1.1-.26.32-.53.57-.8.76-.27.19-.54.27-.81.26-.25-.02-.44-.11-.57-.27-.13-.17-.22-.37-.27-.63-.05-.25-.07-.54-.07-.87,0-.33.02-.65.05-.98.06-.79.14-1.47.24-2.04.1-.57.17-1.12.21-1.65.03-.34.03-.7,0-1.08-.02-.38-.09-.73-.19-1.04-.11-.32-.27-.59-.48-.81-.21-.22-.5-.35-.86-.39-.31-.03-.67.08-1.09.35-.42.27-.9.85-1.43,1.73-.19.3-.39.69-.63,1.17-.23.48-.48,1-.73,1.55-.26.55-.51,1.11-.76,1.67s-.48,1.08-.68,1.54c.05-.45.1-.92.15-1.43.06-.51.11-1,.16-1.48.05-.48.11-.92.15-1.33.05-.41.08-.75.1-1,.03-.45.03-.87,0-1.27s-.11-.75-.22-1.06c-.11-.31-.26-.56-.45-.76-.19-.2-.43-.31-.72-.35-.29-.03-.61.05-.98.25s-.73.57-1.1,1.1c-.22.32-.49.79-.82,1.41-.33.62-.67,1.29-1.01,1.99-.35.71-.69,1.41-1.01,2.12-.33.71-.6,1.3-.81,1.78.15-1.22.3-2.44.45-3.65.15-1.21.28-2.54.39-3.99.03-.33.03-.67,0-1.01-.02-.35-.07-.66-.15-.95-.08-.28-.21-.52-.37-.71-.17-.19-.38-.31-.65-.34-.45-.05-.96.31-1.5,1.09-.55.78-1.16,2.04-1.84,3.76-.05.13-.07.25-.08.37-.02.25.02.48.13.68.1.2.26.31.46.33Zm41.8,2.73c.08-.4.18-.77.3-1.09s.27-.58.44-.77c.17-.19.37-.27.59-.25.16.02.3.14.4.36.1.23.14.54.11.95-.03.37-.1.73-.21,1.09-.11.36-.25.69-.42,1.01-.17.32-.37.6-.6.86-.23.26-.48.47-.75.62-.02-.25-.04-.52-.04-.8,0-.28,0-.54.02-.79.03-.4.09-.8.16-1.21Zm-5.08-14.14c.18-1.27.38-2.41.6-3.4.22-.99.44-1.78.68-2.37.23-.59.46-.86.67-.82.13.02.22.16.28.42s.1.57.11.94c.02.37.02.76,0,1.17-.02.41-.04.79-.07,1.15-.1,1.21-.24,2.42-.43,3.63-.19,1.21-.42,2.4-.68,3.57-.26,1.18-.55,2.33-.86,3.46-.32,1.13-.64,2.23-.98,3.29,0-.99.02-2.12.05-3.38.04-1.26.11-2.52.2-3.77.1-1.31.25-2.6.43-3.88ZM4.31,32.55c.45.02.85-.19,1.19-.61.35-.42.54-.95.59-1.57.02-.31,0-.61-.05-.88-.06-.28-.16-.52-.29-.74-.13-.21-.29-.38-.47-.51-.19-.13-.39-.2-.62-.21-.23-.01-.44.03-.65.14-.21.11-.39.26-.56.46-.17.2-.3.44-.41.71-.11.27-.17.56-.19.88-.05.63.07,1.18.35,1.63.28.45.65.69,1.1.71Zm-.2-2.89c.13-.17.28-.25.45-.24.17,0,.3.1.41.28.11.18.16.39.14.62-.02.23-.1.43-.23.59-.14.16-.29.24-.45.23-.17,0-.3-.1-.41-.27-.11-.17-.15-.37-.13-.61.02-.23.09-.43.23-.6Zm14.66,12.8c.04-.33.07-.64.1-.93.04-.5.01-.84-.08-1.02s-.18-.27-.26-.27c-.17,0-.37.14-.61.43-.24.29-.5.67-.77,1.13-.28.47-.56,1-.86,1.59-.3.59-.58,1.18-.85,1.76-.27.59-.52,1.14-.75,1.68-.23.53-.42.97-.55,1.33-.27.67-.52,1.12-.76,1.36-.24.24-.47.36-.7.37-.32.01-.57-.12-.74-.4-.17-.27-.24-.67-.2-1.18,0-.11.04-.33.08-.66.05-.33.11-.72.18-1.18.07-.46.14-.95.21-1.47.07-.53.15-1.05.22-1.57.07-.52.14-1,.2-1.45.06-.45.1-.82.12-1.12.03-.4.05-.78.06-1.15,0-.37-.02-.59-.08-.67-.1.05-.3.34-.6.89-.3.55-.7,1.52-1.21,2.92,0,0,0,.01-.01.02,0,0,0,.02,0,.03-.16.37-.37.82-.61,1.35s-.52,1.08-.82,1.65c-.3.57-.64,1.14-.99,1.7-.36.57-.73,1.08-1.12,1.53-.39.46-.8.83-1.21,1.12-.42.29-.83.44-1.24.46-.53.02-.98-.12-1.36-.42-.38-.3-.69-.71-.93-1.24-.24-.52-.4-1.15-.48-1.87-.08-.72-.09-1.5-.03-2.33.19-2.4.48-4.78.88-7.16.04-.23.13-.43.27-.61s.31-.26.51-.25c.18,0,.32.1.42.3.1.19.15.41.13.66,0,.1-.05.4-.11.89-.07.5-.15,1.09-.25,1.77-.1.69-.19,1.41-.28,2.18-.09.77-.16,1.48-.21,2.12-.07.88-.06,1.58.02,2.12.08.54.21.95.38,1.24.17.29.36.49.57.58.21.09.42.14.61.13.33,0,.68-.18,1.06-.52.37-.33.77-.8,1.18-1.39.41-.59.83-1.3,1.26-2.12.41-.78.81-1.64,1.22-2.58,0-.03.02-.07.03-.11.64-1.72,1.22-2.98,1.72-3.79.5-.8.97-1.2,1.4-1.19.25,0,.46.1.62.29.16.19.28.43.36.74.08.3.13.64.15,1,.02.37.02.74-.01,1.12-.02.29-.07.73-.15,1.33-.07.6-.16,1.25-.26,1.94-.1.69-.19,1.38-.28,2.06-.09.68-.17,1.26-.24,1.72.22-.53.46-1.11.74-1.74.28-.63.57-1.26.88-1.91.31-.64.63-1.28.97-1.91.33-.63.68-1.22,1.03-1.79.35-.55.69-.94,1.03-1.17.33-.24.63-.35.91-.35.55,0,.93.31,1.14.9.21.59.29,1.32.22,2.19-.02.2-.04.44-.08.73-.04.29-.08.59-.12.92-.04.33-.08.65-.12.99-.04.33-.07.65-.1.94-.03.37-.04.73-.04,1.07,0,.34.03.64.08.89.05.25.14.45.26.6.12.14.29.21.51.21.39,0,.79-.24,1.19-.7.4-.46.78-1,1.14-1.62.36-.62.67-1.25.95-1.89.28-.64.48-1.16.63-1.55.06-.17.15-.3.25-.39.1-.09.21-.14.32-.14.17,0,.3.1.39.29.09.19.13.39.11.6,0,.11-.03.21-.07.32-.05.12-.15.37-.3.75-.15.38-.34.82-.57,1.31-.23.5-.5,1.02-.81,1.58-.31.56-.63,1.07-.99,1.54-.36.47-.73.86-1.13,1.17-.4.32-.8.48-1.22.5-.47.01-.83-.11-1.11-.37-.27-.26-.47-.61-.61-1.05-.13-.44-.21-.93-.22-1.46s0-1.07.04-1.62c.02-.23.05-.5.09-.79.04-.3.08-.61.14-.93.05-.33.1-.65.14-.98Zm48.65,17.1c-.06-.15-.14-.21-.25-.2-.07,0-.14.05-.21.14-.07.09-.13.2-.17.34,0,.03-.03.09-.07.21-.04.11-.09.23-.16.36-.07.13-.15.24-.25.34-.1.1-.21.16-.33.17-.23.02-.42-.06-.58-.25-.16-.19-.3-.43-.41-.73-.11-.3-.2-.62-.27-.98-.07-.36-.12-.7-.16-1.02-.03-.32-.06-.6-.07-.84-.02-.23-.02-.37-.03-.42,0-.17-.04-.31-.1-.41-.06-.1-.14-.15-.23-.14-.11,0-.21.09-.29.24-.09.15-.14.32-.15.5-.01.17-.02.52-.01,1.04,0,.52-.02,1.17-.08,1.96-.05.66-.12,1.29-.21,1.89-.09.6-.21,1.13-.34,1.59-.14.46-.3.83-.5,1.12-.19.28-.41.44-.66.47-.19.02-.35-.03-.49-.16-.14-.13-.25-.34-.33-.64-.08-.3-.12-.68-.13-1.16,0-.48.03-1.05.1-1.72l.36-3.14c.02-.2,0-.38-.06-.53-.06-.15-.15-.22-.26-.22-.11,0-.2.08-.29.21-.09.13-.15.3-.17.49l-.39,3.29c-.08.64-.19,1.2-.34,1.68-.15.48-.32.89-.5,1.21s-.37.57-.56.74c-.19.17-.36.26-.51.28-.31.04-.54-.13-.68-.5-.14-.37-.18-.94-.13-1.7.06-.73.14-1.37.25-1.92.11-.55.22-1.01.34-1.39s.22-.68.32-.91c.1-.22.17-.38.2-.46.07-.17.11-.33.12-.47.02-.19,0-.36-.07-.5-.06-.14-.15-.21-.27-.2-.06,0-.12.03-.17.07-.06.04-.11.1-.15.18-.24.47-.43.93-.59,1.39-.15.43-.29.99-.44,1.64-.04.07-.08.14-.11.23-.08.25-.19.55-.31.89-.12.35-.26.71-.41,1.08-.15.38-.32.75-.5,1.12-.18.37-.36.71-.55,1.01-.19.3-.38.54-.57.73-.19.19-.37.3-.55.32-.28.03-.48-.11-.62-.41-.13-.31-.22-.68-.27-1.12-.04-.44-.06-.88-.05-1.33.01-.45.02-.8.04-1.05,0-.18-.02-.34-.09-.48-.07-.14-.16-.2-.26-.19-.11.01-.22.08-.31.22-.09.13-.16.29-.19.48-.11.69-.25,1.3-.42,1.81-.17.52-.36.95-.55,1.3-.19.35-.39.62-.58.8-.19.18-.36.28-.5.3-.19.02-.35-.02-.48-.14-.12-.12-.22-.28-.28-.49-.06-.2-.1-.44-.11-.69-.01-.26,0-.51.01-.77.06-.82.2-1.53.4-2.14.2-.61.43-1.12.69-1.54.26-.41.53-.72.81-.93s.55-.32.78-.34c.16-.01.3,0,.42.05.12.05.22.11.31.18.08.07.15.14.2.21.05.07.08.11.09.14.07.14.17.2.29.19.11,0,.22-.09.31-.25s.15-.34.17-.53c.01-.18-.01-.36-.08-.52,0-.01-.04-.07-.11-.18-.07-.11-.17-.22-.29-.34-.13-.12-.29-.23-.48-.33-.19-.1-.4-.14-.64-.12-.35.03-.73.19-1.14.48-.41.3-.79.73-1.15,1.29-.3.46-.56,1.01-.8,1.63-.02.02-.04.03-.06.05-.08.08-.14.19-.19.33-.13.37-.31.87-.55,1.48-.23.62-.5,1.23-.79,1.84-.29.61-.61,1.14-.94,1.6-.33.46-.66.71-.99.75-.48.06-.86-.39-1.12-1.34-.27-.96-.44-2.3-.51-4.02.57-1.44,1.12-2.92,1.64-4.42.51-1.5.98-2.99,1.38-4.47.41-1.48.75-2.95,1.03-4.4.28-1.45.48-2.85.58-4.2.09-1.1.12-2.03.1-2.79-.02-.76-.08-1.38-.19-1.86-.11-.48-.26-.82-.45-1.04-.2-.22-.43-.33-.7-.33-.34,0-.66.22-.97.68-.31.46-.6,1.09-.87,1.89-.27.8-.53,1.73-.76,2.79-.24,1.07-.45,2.19-.65,3.38-.19,1.19-.36,2.41-.51,3.66-.14,1.25-.26,2.45-.35,3.62-.06.8-.12,1.72-.17,2.76-.05,1.04-.08,2.1-.08,3.19,0,.47,0,.93.02,1.39-.03.02-.05.03-.08.06-.09.08-.15.2-.19.34-.02.08-.1.29-.22.63-.12.34-.29.73-.49,1.18-.21.45-.45.94-.74,1.46-.29.52-.61,1.01-.96,1.47s-.75.85-1.17,1.17c-.42.32-.87.51-1.34.57-.37.04-.68-.04-.93-.25-.25-.21-.45-.51-.6-.89-.15-.39-.24-.84-.29-1.36-.05-.52-.05-1.07,0-1.66.05-.61.14-1.2.29-1.76.15-.56.32-1.05.52-1.47.2-.42.42-.76.67-1.02.24-.26.49-.4.73-.42.26-.02.47.08.62.31.15.23.21.49.19.78-.02.21-.05.39-.09.52-.04.14-.08.25-.13.35-.05.1-.09.19-.13.27-.04.09-.06.19-.07.3-.02.23.01.41.09.56.08.15.19.21.34.2.1,0,.2-.08.3-.21.1-.13.2-.3.29-.51.09-.21.17-.45.24-.72.07-.27.11-.56.14-.87.03-.32,0-.64-.06-.96-.07-.32-.17-.6-.31-.86-.14-.25-.32-.45-.54-.6-.22-.15-.48-.21-.77-.19-.39.03-.76.21-1.13.56-.37.35-.71.81-1.02,1.39-.31.58-.57,1.25-.78,2.02-.03.12-.06.25-.09.38-.08.08-.14.16-.17.23-.18.49-.37.92-.55,1.29-.19.37-.39.69-.61.94-.22.25-.46.45-.71.59s-.54.23-.85.26c-.06,0-.12.01-.18.02-.06,0-.11,0-.16,0,.11-.52.19-1.01.23-1.47.07-.89.08-1.64.03-2.27-.05-.63-.15-1.14-.29-1.54-.14-.39-.31-.68-.52-.85-.21-.17-.44-.25-.69-.23-.42.03-.79.32-1.09.87-.3.55-.49,1.25-.55,2.09-.08,1.05.02,1.97.32,2.78.29.8.7,1.4,1.22,1.79-.23.62-.54,1.14-.93,1.57-.38.43-.85.68-1.39.74-.31.04-.58-.02-.81-.16-.24-.14-.44-.35-.6-.64-.16-.28-.27-.63-.34-1.05-.06-.41-.08-.87-.04-1.36.04-.55.13-1.05.26-1.51.13-.46.29-.85.46-1.19.17-.34.36-.63.55-.86.19-.23.37-.41.53-.54.16-.13.3-.26.41-.4.11-.13.17-.33.19-.58.02-.22,0-.4-.08-.52-.07-.13-.19-.18-.35-.17-.14.01-.37.14-.67.4-.31.25-.62.63-.95,1.12-.27.41-.53.91-.77,1.49-.08.08-.14.17-.19.29-.21.51-.46,1.11-.76,1.79-.3.68-.64,1.34-1,1.97s-.75,1.18-1.17,1.64c-.41.47-.84.73-1.27.78-.14.02-.3,0-.46-.07-.17-.06-.32-.19-.45-.39-.14-.2-.24-.47-.32-.82-.07-.35-.09-.8-.05-1.35.03-.38.08-.77.14-1.17.06-.4.13-.8.2-1.21.07-.41.14-.81.2-1.19.06-.38.1-.75.13-1.1.07-.87-.04-1.48-.31-1.84-.28-.36-.71-.52-1.3-.47-.16.01-.32.03-.49.05-.17.02-.35.04-.52.05.02-.31.03-.67.03-1.09,0-.42-.03-.81-.09-1.18-.05-.37-.15-.69-.28-.94s-.32-.37-.56-.36c-.21.01-.43.18-.67.52-.24.33-.46.72-.66,1.17-.2.45-.38.9-.51,1.36-.14.46-.22.82-.24,1.09-.03.36,0,.64.09.83s.22.33.37.41c.16.08.33.12.52.12.19,0,.37,0,.55-.02-.15.69-.27,1.2-.36,1.54-.07.26-.13.46-.18.61-.05.08-.09.16-.13.26-.01.03-.05.12-.11.27-.06.14-.14.3-.25.46-.11.17-.24.31-.39.44-.15.13-.33.21-.54.23-.37.04-.68-.06-.95-.29-.27-.23-.5-.53-.69-.91-.19-.37-.35-.79-.47-1.24-.12-.45-.22-.88-.28-1.3-.07-.41-.11-.77-.15-1.06-.03-.3-.05-.48-.06-.54-.02-.22-.07-.39-.17-.52-.1-.13-.23-.18-.38-.17-.18.01-.33.12-.47.31-.14.19-.21.41-.23.65-.02.22-.01.67.01,1.33.03.66,0,1.49-.08,2.5-.07.84-.16,1.65-.3,2.41s-.3,1.44-.51,2.03c-.21.59-.47,1.07-.78,1.44-.31.37-.66.58-1.07.62-.31.04-.58-.02-.81-.18-.24-.16-.43-.42-.57-.8-.14-.38-.22-.87-.25-1.47-.03-.61.01-1.34.11-2.2l.5-4.02c.02-.26-.02-.48-.12-.68-.1-.19-.25-.28-.44-.27-.17.01-.33.11-.48.28-.15.17-.23.38-.26.63l-.55,4.22c-.11.82-.28,1.54-.51,2.16-.23.62-.49,1.14-.78,1.56-.29.42-.59.74-.9.97-.31.22-.59.35-.84.38-.51.06-.89-.14-1.14-.62-.25-.47-.33-1.2-.26-2.17.07-.94.19-1.77.36-2.47.17-.71.34-1.3.52-1.8.18-.49.35-.88.51-1.17.16-.29.27-.49.32-.59.11-.22.17-.42.19-.6.02-.25-.03-.46-.14-.64-.11-.18-.26-.26-.45-.25-.1,0-.19.04-.28.1s-.17.14-.24.24c-.38.61-.69,1.21-.94,1.8-.24.6-.48,1.36-.72,2.28-.23.92-.4,2.01-.5,3.25-.06.75-.04,1.41.06,2s.26,1.07.49,1.46.51.68.86.87c.35.19.75.25,1.2.19.56-.07,1.13-.4,1.73-.98.59-.58,1.13-1.37,1.61-2.35.07.39.17.76.29,1.11.12.35.28.65.49.9s.45.45.74.58c.29.13.63.17,1.03.12.63-.08,1.18-.36,1.63-.83.46-.47.84-1.06,1.15-1.76.31-.7.56-1.47.75-2.31.19-.84.33-1.68.42-2.51.14.3.3.58.47.85.17.26.37.5.59.69.22.2.45.35.72.45.26.1.54.14.86.11.35-.04.68-.18.99-.42.31-.24.57-.51.8-.82.22-.31.4-.62.54-.94.07-.17.13-.32.16-.46.02-.04.05-.13.09-.26.06-.17.12-.4.2-.68.08-.28.16-.6.26-.97.09-.37.17-.76.25-1.18.2-.03.39-.05.56-.07s.33-.03.48-.04c.3-.02.49.03.56.17.08.14.1.35.08.65-.05.69-.16,1.42-.32,2.19-.16.77-.27,1.54-.33,2.31-.06.72-.03,1.36.07,1.92.1.56.26,1.02.47,1.38.21.36.47.62.78.79.31.17.65.23,1.01.18.59-.07,1.14-.37,1.66-.9s1-1.15,1.44-1.87c.26-.42.5-.86.73-1.31.02.27.04.54.09.78.11.6.29,1.11.54,1.51.25.41.55.71.91.91.36.2.76.27,1.21.21.38-.05.74-.17,1.07-.37.33-.2.64-.46.92-.77s.53-.66.76-1.06c.22-.39.42-.82.6-1.27.17.04.37.04.6.02.43-.03.83-.16,1.19-.37.36-.21.69-.48.99-.8.2-.22.38-.46.55-.71,0,.51.01.98.07,1.42.09.71.25,1.32.48,1.83.24.5.54.87.91,1.12.37.24.8.33,1.3.27.56-.07,1.09-.29,1.58-.64.49-.35.94-.78,1.36-1.28.41-.5.78-1.03,1.11-1.61.33-.57.62-1.12.86-1.65.2-.43.36-.81.5-1.16.07.91.19,1.74.36,2.45.18.8.43,1.43.75,1.89.31.46.72.66,1.21.6.32-.04.62-.19.92-.45.3-.26.58-.58.85-.97.27-.39.53-.82.77-1.29.15-.29.28-.57.41-.86,0,.22.02.43.05.64.06.43.15.8.29,1.11.14.31.32.54.54.69.22.15.48.21.77.17.37-.05.75-.31,1.15-.8.4-.49.75-1.12,1.07-1.9.08.72.25,1.31.51,1.76.26.45.61.65,1.05.59.31-.04.61-.2.9-.49.29-.29.58-.64.84-1.06.27-.42.51-.87.74-1.36.09-.2.18-.38.26-.57,0,.29.01.56.04.81.05.45.14.84.27,1.15.13.31.3.54.51.69s.45.21.72.18c.34-.04.69-.28,1.06-.73.37-.44.71-1.04,1.01-1.81.04.31.09.6.16.88.07.27.16.51.28.72.12.2.27.36.44.47.17.11.38.15.63.12.39-.05.72-.25,1.01-.62.29-.36.53-.81.73-1.36.2-.54.36-1.14.49-1.8s.22-1.31.3-1.96c.08.24.17.46.28.67.1.21.22.4.35.55.13.16.28.28.43.37.16.09.33.12.53.1.22-.02.43-.13.62-.31.19-.18.36-.4.51-.64.14-.24.26-.48.35-.74.09-.25.14-.45.15-.6.01-.17,0-.33-.06-.48Zm-50.64.82c.03-.13.07-.28.13-.47.06-.19.12-.37.18-.54.07-.17.13-.31.18-.43.06-.12.1-.18.13-.18.03,0,.06.06.07.18.02.12.03.27.03.44,0,.17,0,.34,0,.52,0,.18-.02.32-.03.43l-.7.05Zm14.44,4.89c-.18-.17-.33-.38-.46-.64-.12-.26-.22-.53-.3-.82-.08-.29-.12-.59-.15-.89-.02-.3-.02-.6,0-.87.03-.44.1-.73.21-.87.1-.14.18-.21.24-.22.14-.01.25.08.34.29.09.2.15.47.19.81.04.34.07.71.07,1.11,0,.41,0,.8-.04,1.2-.02.29-.06.59-.11.9Zm12.78-6.09c.02-.74.04-1.52.08-2.33.04-.81.09-1.66.16-2.54.09-1.16.2-2.32.34-3.5.14-1.17.29-2.3.45-3.38.16-1.08.34-2.08.53-3.02.19-.94.38-1.75.57-2.43.19-.69.38-1.23.57-1.62.19-.4.37-.59.54-.59.26,0,.44.35.54,1.05.1.7.08,1.85-.04,3.45-.09,1.14-.25,2.35-.49,3.61s-.53,2.54-.86,3.83c-.34,1.29-.71,2.57-1.12,3.84s-.83,2.49-1.27,3.63Z"/>
</svg>