<svg width="97" height="33" viewBox="0 0 97 33" fill="none" xmlns="http://www.w3.org/2000/svg">
<path d="M39.349 13.321L40.0099 12.539C40.9979 13.4298 41.945 13.8718 43.2532 13.8718C44.5615 13.8718 45.3587 13.1986 45.3587 12.267V12.2398C45.3587 11.3626 44.8885 10.8663 42.8989 10.4447C40.7254 9.97547 39.7238 9.26828 39.7238 7.71789V7.69069C39.7238 6.20831 41.032 5.11353 42.8308 5.11353C44.2071 5.11353 45.1951 5.50112 46.1558 6.27631L45.5358 7.0991C44.6568 6.38511 43.7779 6.07231 42.8035 6.07231C41.5771 6.07231 40.7935 6.74551 40.7935 7.5955V7.6227C40.7935 8.51348 41.2773 9.00988 43.3622 9.45867C45.4677 9.91427 46.442 10.6827 46.442 12.131V12.1582C46.442 13.7766 45.0929 14.8306 43.2123 14.8306C41.7133 14.8306 40.4801 14.3342 39.349 13.321Z" fill="white"/>
<path d="M48.5406 12.845V8.63586H47.5663V7.71787H48.5406V5.6167H49.5831V7.71787H51.7976V8.63586H49.5831V12.709C49.5831 13.559 50.0533 13.8718 50.7619 13.8718C51.1162 13.8718 51.4092 13.8038 51.7771 13.627V14.5178C51.4092 14.7082 51.0208 14.817 50.5234 14.817C49.3992 14.817 48.5475 14.2662 48.5475 12.845H48.5406Z" fill="white"/>
<path d="M53.0104 12.6683V12.6411C53.0104 11.1451 54.2232 10.3631 55.9947 10.3631C56.8873 10.3631 57.5074 10.4855 58.1274 10.6623V10.4447C58.1274 9.20711 57.3711 8.55432 56.0629 8.55432C55.2384 8.55432 54.5911 8.75832 53.9438 9.05071L53.6304 8.20072C54.4003 7.84713 55.143 7.60913 56.1719 7.60913C57.2008 7.60913 57.9298 7.88113 58.4272 8.37752C58.911 8.86032 59.1563 9.54031 59.1563 10.4243V14.6878H58.1274V13.6475C57.6436 14.2663 56.8464 14.8306 55.6132 14.8306C54.305 14.8306 53.0035 14.0895 53.0035 12.6615L53.0104 12.6683ZM58.141 12.1311V11.4851C57.63 11.3355 56.9555 11.1859 56.1038 11.1859C54.8092 11.1859 54.0665 11.7503 54.0665 12.5867V12.6139C54.0665 13.4911 54.8773 14.0011 55.8244 14.0011C57.1054 14.0011 58.1479 13.2327 58.1479 12.1243L58.141 12.1311Z" fill="white"/>
<path d="M61.3298 7.72469H62.3723V9.54707C62.8833 8.38428 63.8986 7.55469 65.2204 7.60229V8.72428H65.1387C63.6124 8.72428 62.3723 9.81906 62.3723 11.9202V14.6946H61.3298V7.72469Z" fill="white"/>
<path d="M67.3463 12.845V8.63586H66.3719V7.71787H67.3463V5.6167H68.3888V7.71787H70.6032V8.63586H68.3888V12.709C68.3888 13.559 68.8589 13.8718 69.5676 13.8718C69.9219 13.8718 70.2148 13.8038 70.5828 13.627V14.5178C70.2148 14.7082 69.8265 14.817 69.3291 14.817C68.2048 14.817 67.3531 14.2662 67.3531 12.845H67.3463Z" fill="white"/>
<path d="M72.1227 12.0494V7.7179H73.1652V11.791C73.1652 13.083 73.867 13.8922 75.1003 13.8922C76.3335 13.8922 77.192 13.015 77.192 11.7094V7.7179H78.2209V14.6878H77.192V13.4774C76.7219 14.2322 75.9997 14.8374 74.8005 14.8374C73.1107 14.8374 72.1227 13.7018 72.1227 12.0494Z" fill="white"/>
<path d="M80.4695 7.72467H81.512V9.12545C82.0775 8.28906 82.902 7.57507 84.1897 7.57507C85.8659 7.57507 87.5284 8.89426 87.5284 11.1858V11.213C87.5284 13.491 85.8795 14.8374 84.1897 14.8374C82.8951 14.8374 82.0571 14.137 81.512 13.355V16.8502H80.4695V7.72467ZM86.4519 11.2334V11.2062C86.4519 9.56065 85.314 8.50666 83.9921 8.50666C82.6703 8.50666 81.4643 9.60145 81.4643 11.1926V11.2198C81.4643 12.8382 82.6907 13.9194 83.9921 13.9194C85.2936 13.9194 86.4519 12.9198 86.4519 11.2334Z" fill="white"/>
<path d="M39.0219 18.557H41.1546L43.0283 24.6701L45.0588 18.5298H46.7622L48.7927 24.6701L50.6665 18.557H52.7446L49.658 27.6553H47.9274L45.8833 21.7461L43.8392 27.6553H42.1085L39.0219 18.557Z" fill="white"/>
<path d="M53.6235 20.6785H55.5859V22.0725C55.9879 21.1205 56.6352 20.5017 57.7935 20.5493V22.6029H57.6913C56.3831 22.6029 55.5859 23.3917 55.5859 25.0441V27.6008H53.6235V20.6853V20.6785Z" fill="white"/>
<path d="M58.6112 24.1737V24.1465C58.6112 22.1609 60.2124 20.5493 62.3724 20.5493C64.5323 20.5493 66.1062 22.1337 66.1062 24.1261V24.1533C66.1062 26.1388 64.505 27.7504 62.3451 27.7504C60.1852 27.7504 58.6112 26.166 58.6112 24.1737ZM64.1712 24.1737V24.1465C64.1712 23.1265 63.4353 22.2357 62.3451 22.2357C61.2549 22.2357 60.5463 23.0993 60.5463 24.1193V24.1465C60.5463 25.1665 61.2822 26.0573 62.3724 26.0573C63.4625 26.0573 64.1712 25.1937 64.1712 24.1737Z" fill="white"/>
<path d="M67.1896 24.1737V24.1465C67.1896 22.1745 68.7022 20.5493 70.8213 20.5493C72.1295 20.5493 72.9403 20.9913 73.5876 21.7121L72.3884 23.0041C71.9455 22.5417 71.5094 22.2425 70.8144 22.2425C69.8333 22.2425 69.1315 23.1061 69.1315 24.1261V24.1533C69.1315 25.2141 69.8196 26.0641 70.8894 26.0641C71.5503 26.0641 72 25.7785 72.477 25.3297L73.6285 26.4924C72.9539 27.2268 72.184 27.7572 70.794 27.7572C68.7158 27.7572 67.1896 26.1593 67.1896 24.1805V24.1737Z" fill="white"/>
<path d="M74.8959 18.1693H76.8582V27.5872H74.8959V18.1693Z" fill="white"/>
<path d="M78.2822 25.6017V25.5745C78.2822 24.0649 79.4337 23.3713 81.0758 23.3713C81.7708 23.3713 82.275 23.4869 82.7724 23.6569V23.5413C82.7724 22.7253 82.2682 22.2765 81.2871 22.2765C80.5376 22.2765 80.0061 22.4193 79.3724 22.6505L78.8818 21.1545C79.645 20.8213 80.3945 20.5969 81.5732 20.5969C82.643 20.5969 83.4197 20.8825 83.9103 21.3721C84.4282 21.8889 84.6598 22.6505 84.6598 23.5753V27.5872H82.7588V26.8392C82.2818 27.3696 81.6209 27.7164 80.667 27.7164C79.3588 27.7164 78.289 26.9684 78.289 25.6017H78.2822ZM82.7929 25.1529V24.8061C82.459 24.6497 82.0161 24.5477 81.5392 24.5477C80.7011 24.5477 80.1832 24.8809 80.1832 25.4997V25.5269C80.1832 26.0573 80.6261 26.3633 81.253 26.3633C82.1728 26.3633 82.7929 25.8601 82.7929 25.1529Z" fill="white"/>
<path d="M85.566 20.6785H87.5556L88.6663 24.874L89.9745 20.6581H91.6711L92.9929 24.8876L94.1308 20.6853H96.0863L93.9264 27.6484H92.1549L90.8262 23.4052L89.4703 27.6484H87.7123L85.5797 20.6853L85.566 20.6785Z" fill="white"/>
<path d="M17.0682 23.5413C17.1568 23.4461 26.5052 13.2938 26.9549 12.8179C27.241 12.5119 27.3364 12.1719 27.2342 11.8863C27.0571 11.6415 26.7164 11.5259 26.3076 11.5871C25.6603 11.6891 11.9852 13.695 11.8626 13.7086L11.74 13.7494C11.6446 13.8106 11.4606 13.9194 11.3584 14.103C11.3243 14.1642 11.2971 14.2322 11.2834 14.3138C11.2494 14.5246 11.3243 14.7422 11.5083 14.953C11.8149 15.2318 12.1351 15.5038 12.4486 15.7758C12.7416 16.0274 13.0209 16.2722 13.2594 16.4762C13.3548 16.5646 13.457 16.6462 13.5524 16.7346C13.7568 16.9046 13.9544 17.0814 14.1452 17.265C14.2678 17.3874 15.433 17.4894 17.3953 17.0678C15.9712 18.5366 15.3716 19.4682 15.4057 19.6382C15.4534 19.8966 15.4807 20.1618 15.5147 20.427C15.5283 20.5562 15.542 20.6854 15.5624 20.8146C15.6033 21.1274 15.6442 21.5013 15.6919 21.8821C15.7396 22.2901 15.7873 22.7117 15.8418 23.1197C15.9167 23.3917 16.053 23.5753 16.2506 23.6637C16.3255 23.6977 16.3937 23.7181 16.4618 23.7181C16.673 23.7385 16.8638 23.6501 16.9728 23.6025L17.0751 23.5277L17.0682 23.5413Z" fill="white"/>
<path d="M13.675 21.5082L13.3071 20.529C13.1708 20.1618 12.762 19.9714 12.3941 20.1142L10.6838 20.6582L12.1011 19.5498C12.4213 19.3322 12.5099 18.8834 12.2851 18.5638L11.6923 17.7002C11.4742 17.3806 11.0245 17.2922 10.7043 17.5166L0.306634 24.6158C-0.0136079 24.8334 -0.102186 25.2821 0.122665 25.6017L0.531485 26.3905C0.667758 26.7577 1.07658 26.9481 1.44452 26.8053L13.2526 22.4194C13.6205 22.2834 13.8113 21.8754 13.6682 21.5082H13.675Z" fill="white"/>
<path d="M17.6543 33C13.9136 33 10.2478 31.7216 7.33155 29.3892L9.13718 27.1385C11.5765 29.0832 14.52 30.1168 17.6543 30.1168C25.1765 30.1168 31.302 24.0105 31.302 16.4966C31.302 8.98269 25.1765 2.88316 17.6543 2.88316C10.132 2.88316 4.00649 8.98949 4.00649 16.5034C4.00649 17.1766 4.05418 17.8498 4.14957 18.5026L1.29465 18.9242C1.17882 18.1286 1.11749 17.3126 1.11749 16.5034C1.11749 7.40511 8.53757 0 17.6543 0C26.7709 0 34.191 7.40511 34.191 16.5034C34.191 25.6017 26.7709 33.0068 17.6543 33.0068V33Z" fill="white"/>
</svg>
