<svg width="136" height="31" viewBox="0 0 136 31" fill="none" xmlns="http://www.w3.org/2000/svg">
<path d="M18.0624 9.22712L21.2171 9.43792L24.1878 14.9051H26.6817L23.6495 9.26792C23.9766 9.16592 24.3649 8.98232 24.7329 8.63553C25.0531 8.33633 25.3462 7.90794 25.5506 7.33674C25.755 6.76555 25.8776 6.05156 25.8776 5.14717C25.8776 4.35838 25.789 3.68519 25.605 3.12079C25.3393 2.2708 24.8692 1.64521 24.2628 1.25762C23.6564 0.870021 22.9409 0.720423 22.205 0.720423H15.7798V14.9119H18.0487V9.23392L18.0624 9.22712ZM18.0624 2.9236H22.2119C22.4026 2.9236 22.5798 2.9372 22.7297 2.9848C22.8455 3.0188 22.9409 3.06639 23.0363 3.13439C23.1726 3.24319 23.3089 3.41319 23.4111 3.73279C23.5201 4.04558 23.595 4.50798 23.595 5.14717C23.595 5.73196 23.5406 6.14676 23.452 6.43235C23.3907 6.64315 23.3157 6.78595 23.2339 6.88115C23.1181 7.01715 23.0159 7.07155 22.8456 7.11235C22.6752 7.15315 22.4571 7.15995 22.2119 7.15995H18.0624V2.9236ZM6.47913 16.0882L6.37691 16.3534L0.987273 30.2729H3.65826L4.92559 26.5533H9.9268L11.1397 30.2729H13.7493L8.50277 16.0814H6.49277L6.47913 16.0882ZM5.7432 24.3705L7.45343 19.7942L9.12283 24.3705H5.7432ZM27.9285 15.517L23.7245 26.2405L20.5153 16.0882H18.0146L19.4456 20.7598L17.3673 26.3289L13.4018 14.8983L8.47548 0.713623H6.46549L6.36326 0.97882L0.973633 14.9051H3.64462L4.91195 11.1787H9.91316L11.2487 15.0274L16.2908 30.2729H18.3076L20.6243 24.2753L22.6752 30.2729H24.692L30.4019 15.5102H27.9354L27.9285 15.517ZM5.72964 9.00272L7.43988 4.42638L9.10919 9.00272H5.72964Z" fill="white"/>
<path d="M44.3631 5.67074H43.784L41.6308 11.5119L41.6104 11.5595H42.3531L42.8232 10.2403H45.317L45.7735 11.5323V11.5595H46.5231L44.3699 5.69114V5.66394L44.3631 5.67074ZM45.1126 9.63509H43.0413L44.0837 6.71113L45.1126 9.63509Z" fill="white"/>
<path d="M49.7528 7.87393C49.4053 7.47273 49.0237 7.41833 48.6626 7.41833C48.2606 7.41833 47.879 7.55433 47.6541 7.77873C47.2112 8.22073 47.1499 8.92112 47.1499 9.47871C47.1499 10.0363 47.2044 10.7367 47.6541 11.1787C47.8858 11.4099 48.2606 11.5459 48.6558 11.5459C48.9965 11.5459 49.3916 11.4915 49.7459 11.0903V11.6139C49.7459 12.3755 49.3575 12.8107 48.6762 12.8107C48.206 12.8107 48.0084 12.6611 47.7359 12.4163L47.7087 12.3959L47.2726 12.8243L47.2999 12.8515C47.7564 13.2595 48.1038 13.4023 48.6898 13.4023C49.7323 13.4023 50.4069 12.7087 50.4069 11.6411V7.45913H49.7528V7.86713V7.87393ZM49.7459 9.47871C49.7459 10.7707 49.2622 10.9475 48.7852 10.9475C47.9335 10.9475 47.8176 10.2063 47.8176 9.47871C47.8176 8.75112 47.9335 8.00993 48.7852 8.00993C49.2622 8.00993 49.7459 8.18673 49.7459 9.47871Z" fill="white"/>
<path d="M54.9175 10.9475L54.4609 10.5463L54.4337 10.5735C54.1067 10.8999 53.8341 11.0223 53.4049 11.0223C52.6758 11.0223 52.2669 10.5531 52.2533 9.70991H54.972V9.41071C54.972 8.16633 54.3383 7.41833 53.2822 7.41833C52.2261 7.41833 51.5924 8.20033 51.5924 9.51271C51.5924 10.8251 52.2329 11.6071 53.3912 11.6071C54.1135 11.6071 54.5018 11.3623 54.8902 10.9747L54.9175 10.9475ZM52.376 8.56752C52.5463 8.19353 52.8802 7.98273 53.2822 7.98273C53.6842 7.98273 54.0181 8.19353 54.1885 8.56752C54.277 8.76472 54.2906 8.89392 54.3111 9.18631H52.2533C52.2669 8.90072 52.2806 8.77152 52.3692 8.56752H52.376Z" fill="white"/>
<path d="M58.7263 11.5594H59.3872V8.94828C59.3872 8.45869 59.2442 8.08469 58.958 7.79909C58.7059 7.5475 58.3379 7.4115 57.9018 7.4115C57.4658 7.4115 57.091 7.5611 56.8117 7.84669V7.4659H56.1508V11.5594H56.8117V9.04348C56.8117 8.38389 57.1592 8.00989 57.7724 8.00989C58.3856 8.00989 58.7263 8.37709 58.7263 9.04348V11.5594Z" fill="white"/>
<path d="M62.3512 11.607C62.9303 11.607 63.2846 11.4506 63.7071 11.0018L63.7343 10.9746L63.2778 10.5394L63.2505 10.5666C62.9507 10.8998 62.7259 11.0154 62.3512 11.0154C61.9764 11.0154 61.6493 10.859 61.4449 10.5734C61.2609 10.3218 61.1928 10.0158 61.1928 9.51942C61.1928 9.02303 61.2677 8.71023 61.4517 8.46544C61.6561 8.17304 61.9696 8.02344 62.358 8.02344C62.7464 8.02344 62.9575 8.13224 63.2573 8.45864L63.2846 8.48584L63.7411 8.05744L63.7139 8.03024C63.2983 7.58145 62.9439 7.42505 62.358 7.42505C61.2337 7.42505 60.5387 8.22744 60.5387 9.51942C60.5387 10.8114 61.2337 11.6138 62.358 11.6138L62.3512 11.607Z" fill="white"/>
<path d="M65.465 5.6571H64.7291V6.3915H65.465V5.6571Z" fill="white"/>
<path d="M64.7565 12.2259C64.7565 12.6203 64.6133 12.7767 64.2522 12.7767H63.8979V13.3683H64.3612C65.0222 13.3683 65.4242 12.9535 65.4242 12.2531V7.46594H64.7632V12.2259H64.7565Z" fill="white"/>
<path d="M68.1087 7.41833C67.3865 7.41833 66.9981 7.58833 66.6506 8.03713L66.6302 8.06433L67.0867 8.48592L67.114 8.45192C67.3593 8.11873 67.6181 8.00313 68.1019 8.00313C68.7901 8.00313 69.0968 8.26152 69.0968 8.84632V9.19311H67.9316C67.0322 9.19311 66.4939 9.64191 66.4939 10.3899C66.4939 10.7435 66.6029 11.0427 66.8073 11.2331C67.0935 11.5119 67.407 11.6139 67.9725 11.6139C68.4835 11.6139 68.7901 11.5119 69.0968 11.2331V11.5663H69.7577V8.79872C69.7577 7.89433 69.1853 7.41833 68.1087 7.41833ZM68.0338 11.0291C67.4137 11.0291 67.1344 10.8319 67.1344 10.3831C67.1344 9.9343 67.4205 9.70991 68.0065 9.70991H69.0899V10.1043C69.0899 10.4307 69.0286 10.6483 68.8991 10.7707C68.6607 10.9883 68.3881 11.0291 68.0338 11.0291Z" fill="white"/>
<path d="M77.3003 7.32303C77.3003 6.31665 76.6054 5.67065 75.5356 5.67065H73.2599V11.5662H73.9549V8.98221H75.2972L76.6122 11.5458V11.5662H77.4367L76.0467 8.91421C76.8302 8.73062 77.3003 8.14582 77.3003 7.32983V7.32303ZM73.9616 6.29625H75.4811C76.183 6.29625 76.6053 6.68384 76.6053 7.32983C76.6053 7.97583 76.183 8.35662 75.4811 8.35662H73.9616V6.29625Z" fill="white"/>
<path d="M79.8963 11.6071C80.3801 11.6071 80.7753 11.4507 81.0751 11.1379C81.518 10.6891 81.5793 10.0635 81.5793 9.51271C81.5793 8.96192 81.518 8.32952 81.0751 7.88753C80.7753 7.58153 80.3665 7.41833 79.8963 7.41833C79.4262 7.41833 79.0106 7.58153 78.7176 7.88753C78.2747 8.32952 78.2134 8.95512 78.2134 9.51271C78.2134 10.0703 78.2747 10.6891 78.7176 11.1379C79.0174 11.4507 79.4194 11.6071 79.8963 11.6071ZM79.1945 8.29552C79.3853 8.10513 79.617 8.00993 79.8963 8.00993C80.1757 8.00993 80.4209 8.10513 80.6049 8.29552C80.8911 8.58112 80.9116 9.05032 80.9116 9.51271C80.9116 9.9479 80.8843 10.4375 80.6049 10.7299C80.4209 10.9135 80.1757 11.0155 79.8963 11.0155C79.617 11.0155 79.3853 10.9203 79.1945 10.7299C78.9015 10.4375 78.8811 9.9479 78.8811 9.51271C78.8811 9.04352 78.922 8.57432 79.1945 8.29552Z" fill="white"/>
<path d="M82.5129 8.06434H84.5911L82.397 10.9951L82.3903 11.0019V11.5595H85.3814V10.9611H83.1669L85.3746 8.02354L85.3814 8.01674V7.46594H82.5129V8.06434Z" fill="white"/>
<path d="M89.0336 8.51993L90.0556 11.5391L90.0623 11.5595H90.6688L91.9566 7.46594H91.2412L90.3486 10.6007L89.3129 7.46594H88.7542L87.7253 10.6007L86.8327 7.49314L86.8259 7.46594H86.1105L87.3983 11.5323L87.4119 11.5595H88.0115L89.0336 8.51993Z" fill="white"/>
<path d="M94.2323 11.6071C94.716 11.6071 95.1113 11.4507 95.4111 11.1379C95.854 10.6891 95.9153 10.0635 95.9153 9.51271C95.9153 8.96192 95.854 8.32952 95.4111 7.88753C95.1113 7.58153 94.7024 7.41833 94.2323 7.41833C93.7621 7.41833 93.3465 7.58153 93.0535 7.88753C92.6106 8.32952 92.5493 8.95512 92.5493 9.51271C92.5493 10.0703 92.6106 10.6891 93.0535 11.1379C93.3533 11.4507 93.7553 11.6071 94.2323 11.6071ZM93.5305 8.29552C93.7213 8.10513 93.9529 8.00993 94.2323 8.00993C94.5116 8.00993 94.757 8.10513 94.9409 8.29552C95.2271 8.58112 95.2476 9.05032 95.2476 9.51271C95.2476 9.9479 95.2203 10.4375 94.9409 10.7299C94.757 10.9135 94.5116 11.0155 94.2323 11.0155C93.9529 11.0155 93.7213 10.9203 93.5305 10.7299C93.2375 10.4375 93.217 9.9479 93.217 9.51271C93.217 9.04352 93.258 8.57432 93.5305 8.29552Z" fill="white"/>
<path d="M97.789 5.6571H97.0531V6.3915H97.789V5.6571Z" fill="white"/>
<path d="M97.7482 12.2531V7.46594H97.0873V12.2259C97.0873 12.6203 96.9442 12.7767 96.5831 12.7767H96.2288V13.3683H96.6921C97.3531 13.3683 97.755 12.9535 97.755 12.2531H97.7482Z" fill="white"/>
<path d="M101.659 9.98191C101.659 10.6415 101.305 11.0155 100.692 11.0155C100.079 11.0155 99.7446 10.6483 99.7446 9.98191V7.46594H99.0837V10.0703C99.0837 10.5735 99.22 10.9475 99.5062 11.2263C99.7583 11.4779 100.126 11.6139 100.569 11.6139C101.012 11.6139 101.387 11.4575 101.673 11.1719V11.5663H102.327V7.47274H101.666V9.98871L101.659 9.98191Z" fill="white"/>
<path d="M44.3631 16.8089H43.784L41.6308 22.6501L41.6104 22.6977H42.3531L42.8232 21.3785H45.317L45.7735 22.6705V22.6977H46.5231L44.3699 16.8293V16.8021L44.3631 16.8089ZM45.1126 20.7733H43.0413L44.0837 17.8493L45.1126 20.7733Z" fill="white"/>
<path d="M49.7528 19.0189C49.4053 18.6178 49.0237 18.5634 48.6626 18.5634C48.2606 18.5634 47.879 18.6994 47.6541 18.9237C47.2112 19.3657 47.1499 20.0661 47.1499 20.6237C47.1499 21.1813 47.2044 21.8817 47.6541 22.3237C47.8858 22.5549 48.2606 22.6909 48.6558 22.6909C48.9965 22.6909 49.3916 22.6365 49.7459 22.2353V22.7589C49.7459 23.5205 49.3575 23.9557 48.6762 23.9557C48.206 23.9557 48.0084 23.8061 47.7359 23.5613L47.7087 23.5409L47.2726 23.9693L47.2999 23.9965C47.7564 24.4045 48.1038 24.5473 48.6898 24.5473C49.7323 24.5473 50.4069 23.8537 50.4069 22.7861V18.6042H49.7528V19.0121V19.0189ZM49.7459 20.6237C49.7459 21.9157 49.2622 22.0925 48.7852 22.0925C47.9335 22.0925 47.8176 21.3513 47.8176 20.6237C47.8176 19.8961 47.9335 19.1549 48.7852 19.1549C49.2622 19.1549 49.7459 19.3317 49.7459 20.6237Z" fill="white"/>
<path d="M52.4304 21.5689V16.809H51.7695V21.5961C51.7695 22.2897 52.1648 22.7045 52.8325 22.7045H53.2958V22.1265H52.9415C52.5803 22.1265 52.4373 21.9701 52.4373 21.5757L52.4304 21.5689Z" fill="white"/>
<path d="M55.6873 18.5565C55.2104 18.5565 54.8016 18.7197 54.5086 19.0257C54.0657 19.4677 54.0044 20.0933 54.0044 20.6509C54.0044 21.2085 54.0657 21.8273 54.5086 22.2761C54.8084 22.5889 55.2104 22.7453 55.6873 22.7453C56.1643 22.7453 56.5663 22.5889 56.8661 22.2761C57.309 21.8273 57.3703 21.2017 57.3703 20.6509C57.3703 20.1001 57.309 19.4677 56.8661 19.0257C56.5663 18.7197 56.1575 18.5565 55.6873 18.5565ZM54.9855 19.4405C55.1763 19.2501 55.408 19.1549 55.6873 19.1549C55.9667 19.1549 56.212 19.2501 56.396 19.4405C56.6822 19.7261 56.7026 20.1953 56.7026 20.6577C56.7026 21.0929 56.6754 21.5825 56.396 21.8749C56.212 22.0585 55.9667 22.1605 55.6873 22.1605C55.408 22.1605 55.1763 22.0653 54.9855 21.8749C54.6925 21.5825 54.6653 21.0929 54.6653 20.6577C54.6653 20.1885 54.7062 19.7193 54.9855 19.4405Z" fill="white"/>
<path d="M62.8962 18.5565C62.3375 18.5565 61.8947 18.7741 61.5744 19.1957C61.3223 18.7741 60.893 18.5565 60.3343 18.5565C59.8982 18.5565 59.5167 18.7061 59.2305 18.9917V18.6109H58.5696V22.7045H59.2305V20.1885C59.2305 19.5289 59.5848 19.1549 60.1981 19.1549C60.8113 19.1549 61.152 19.5221 61.152 20.1885V22.7045H61.8129V20.1273C61.8129 19.5289 62.1877 19.1617 62.7805 19.1617C63.3733 19.1617 63.7344 19.5289 63.7344 20.1953V22.7113H64.3953V20.1001C64.3953 19.6241 64.2454 19.2433 63.9524 18.9509C63.6935 18.6993 63.3187 18.5633 62.8894 18.5633L62.8962 18.5565Z" fill="white"/>
<path d="M67.257 18.5565C66.2009 18.5565 65.5673 19.3385 65.5673 20.6509C65.5673 21.9633 66.2078 22.7453 67.3661 22.7453C68.0883 22.7453 68.4767 22.5005 68.8651 22.1129L68.8923 22.0857L68.4358 21.6845L68.4086 21.7117C68.0815 22.0381 67.809 22.1605 67.3797 22.1605C66.6507 22.1605 66.2418 21.6913 66.2282 20.8481H68.9468V20.5489C68.9468 19.3045 68.3132 18.5565 67.257 18.5565ZM66.3508 19.7125C66.5212 19.3385 66.855 19.1277 67.257 19.1277C67.659 19.1277 67.993 19.3385 68.1633 19.7125C68.2519 19.9097 68.2655 20.0389 68.2859 20.3313H66.2282C66.2418 20.0457 66.2555 19.9165 66.344 19.7125H66.3508Z" fill="white"/>
<path d="M71.8767 18.5565C71.4338 18.5565 71.025 18.7333 70.7865 19.0189V18.6041H70.1256V22.6977H70.7865V20.1953C70.7865 19.5833 71.1681 19.1549 71.7132 19.1549C72.0062 19.1549 72.1629 19.2229 72.3809 19.4405L72.4082 19.4677L72.8919 18.9713L72.8646 18.9441C72.5921 18.6721 72.2991 18.5565 71.8699 18.5565H71.8767Z" fill="white"/>
<path d="M75.0927 18.5565C74.3705 18.5565 73.9821 18.7265 73.6346 19.1753L73.6142 19.2025L74.0707 19.6241L74.098 19.5901C74.3433 19.2569 74.6021 19.1413 75.0859 19.1413C75.7741 19.1413 76.0808 19.3997 76.0808 19.9845V20.3313H74.9156C74.0162 20.3313 73.4779 20.7801 73.4779 21.5281C73.4779 21.8817 73.5869 22.1809 73.7913 22.3713C74.0775 22.6501 74.391 22.7521 74.9565 22.7521C75.4675 22.7521 75.7742 22.6501 76.0808 22.3713V22.7045H76.7417V19.9369C76.7417 19.0325 76.1693 18.5565 75.0927 18.5565ZM75.0178 22.1673C74.3978 22.1673 74.1184 21.9701 74.1184 21.5213C74.1184 21.0725 74.4045 20.8481 74.9905 20.8481H76.074V21.2425C76.074 21.5689 76.0126 21.7865 75.8831 21.9089C75.6447 22.1265 75.3721 22.1673 75.0178 22.1673Z" fill="white"/>
<path d="M79.7056 19.1549C80.0804 19.1549 80.3052 19.2637 80.605 19.5901L80.6323 19.6173L81.0888 19.1889L81.0615 19.1617C80.6459 18.7129 80.2916 18.5565 79.7056 18.5565C78.5814 18.5565 77.8864 19.3589 77.8864 20.6509C77.8864 21.9429 78.5814 22.7453 79.7056 22.7453C80.2848 22.7453 80.6391 22.5889 81.0615 22.1401L81.0888 22.1129L80.6323 21.6777L80.605 21.7049C80.3052 22.0381 80.0804 22.1537 79.7056 22.1537C79.3309 22.1537 79.0039 21.9973 78.7994 21.7117C78.6155 21.4601 78.5473 21.1541 78.5473 20.6577C78.5473 20.1613 78.6223 19.8553 78.8063 19.6037C79.0107 19.3113 79.3241 19.1617 79.7125 19.1617L79.7056 19.1549Z" fill="white"/>
<path d="M82.8193 16.8021H82.0835V17.5365H82.8193V16.8021Z" fill="white"/>
<path d="M82.1108 23.3709C82.1108 23.7653 81.9678 23.9217 81.6066 23.9217H81.2523V24.5133H81.7156C82.3765 24.5133 82.7786 24.0985 82.7786 23.3981V18.611H82.1177V23.3709H82.1108Z" fill="white"/>
<path d="M84.8568 16.8021H84.1208V17.5365H84.8568V16.8021Z" fill="white"/>
<path d="M84.8158 18.611H84.1549V22.7045H84.8158V18.611Z" fill="white"/>
<path d="M92.6107 21.3921L91.3638 16.8362L91.357 16.809H90.7437L89.49 21.3921L88.3862 16.8362L88.3794 16.809H87.6367L89.1425 22.6773L89.1493 22.7045H89.783L91.0504 18.1485L92.3109 22.6773L92.3177 22.7045H92.9581L94.4504 16.8566L94.464 16.809H93.7213L92.6107 21.3921Z" fill="white"/>
<path d="M96.9782 18.5565C96.5354 18.5565 96.1266 18.7333 95.8881 19.0189V18.6041H95.2272V22.6977H95.8881V20.1953C95.8881 19.5833 96.2696 19.1549 96.8147 19.1549C97.1077 19.1549 97.2644 19.2229 97.4825 19.4405L97.5097 19.4677L97.9935 18.9713L97.9663 18.9441C97.6937 18.6721 97.4007 18.5565 96.9714 18.5565H96.9782Z" fill="white"/>
<path d="M100.208 18.5565C99.7309 18.5565 99.3221 18.7197 99.0291 19.0257C98.5862 19.4677 98.5249 20.0933 98.5249 20.6509C98.5249 21.2085 98.5862 21.8273 99.0291 22.2761C99.3289 22.5889 99.7309 22.7453 100.208 22.7453C100.685 22.7453 101.087 22.5889 101.387 22.2761C101.829 21.8273 101.891 21.2017 101.891 20.6509C101.891 20.1001 101.829 19.4677 101.387 19.0257C101.087 18.7197 100.678 18.5565 100.208 18.5565ZM99.5061 19.4405C99.6969 19.2501 99.9285 19.1549 100.208 19.1549C100.487 19.1549 100.733 19.2501 100.917 19.4405C101.203 19.7261 101.223 20.1953 101.223 20.6577C101.223 21.0929 101.196 21.5825 100.917 21.8749C100.733 22.0585 100.487 22.1605 100.208 22.1605C99.9285 22.1605 99.6969 22.0653 99.5061 21.8749C99.2131 21.5825 99.1858 21.0929 99.1858 20.6577C99.1858 20.1885 99.2268 19.7193 99.5061 19.4405Z" fill="white"/>
<path d="M104.725 19.1549C105.1 19.1549 105.325 19.2637 105.625 19.5901L105.652 19.6173L106.109 19.1889L106.081 19.1617C105.666 18.7129 105.311 18.5565 104.725 18.5565C103.601 18.5565 102.906 19.3589 102.906 20.6509C102.906 21.9429 103.601 22.7453 104.725 22.7453C105.304 22.7453 105.659 22.5889 106.081 22.1401L106.109 22.1129L105.652 21.6777L105.625 21.7049C105.325 22.0381 105.1 22.1537 104.725 22.1537C104.351 22.1537 104.024 21.9973 103.819 21.7117C103.635 21.4601 103.567 21.1541 103.567 20.6577C103.567 20.1613 103.642 19.8485 103.826 19.6037C104.03 19.3113 104.344 19.1617 104.732 19.1617L104.725 19.1549Z" fill="white"/>
<path d="M107.982 21.5689V19.5289L108.643 19.1209V18.5293L107.982 18.9373V16.809H107.321V19.3453L106.803 19.6649V20.2565L107.321 19.9369V21.5961C107.321 22.2897 107.723 22.7045 108.391 22.7045H108.854V22.1265H108.486C108.125 22.1265 107.982 21.9701 107.982 21.5757V21.5689Z" fill="white"/>
<path d="M111.314 18.5565C110.592 18.5565 110.204 18.7265 109.856 19.1753L109.836 19.2025L110.292 19.6241L110.319 19.5901C110.565 19.2569 110.824 19.1413 111.307 19.1413C111.996 19.1413 112.302 19.3997 112.302 19.9845V20.3313H111.137C110.238 20.3313 109.699 20.7801 109.699 21.5281C109.699 21.8817 109.808 22.1809 110.013 22.3713C110.299 22.6501 110.612 22.7521 111.178 22.7521C111.689 22.7521 111.996 22.6501 112.302 22.3713V22.7045H112.963V19.9369C112.963 19.0325 112.391 18.5565 111.314 18.5565ZM111.239 22.1673C110.619 22.1673 110.34 21.9701 110.34 21.5213C110.34 21.0725 110.626 20.8481 111.212 20.8481H112.295V21.2425C112.295 21.5689 112.234 21.7865 112.105 21.9089C111.866 22.1265 111.594 22.1673 111.239 22.1673Z" fill="white"/>
<path d="M117.93 21.7457L116.895 18.611H116.336L115.307 21.7457L114.414 18.6382L114.408 18.611H113.692L114.987 22.6773L114.994 22.7045H115.593L116.615 19.6581L117.637 22.6773L117.644 22.7045H118.25L119.545 18.611H118.823L117.93 21.7457Z" fill="white"/>
<path d="M122.175 20.3653L121.548 20.3109C121.065 20.2633 120.86 20.1001 120.86 19.7601C120.86 19.3589 121.167 19.1345 121.725 19.1345C122.155 19.1345 122.509 19.2365 122.775 19.4473L122.802 19.4677L123.238 19.0325L123.204 19.0053C122.836 18.713 122.339 18.5634 121.732 18.5634C120.812 18.5634 120.213 19.0393 120.213 19.7805C120.213 20.4537 120.628 20.8277 121.453 20.8957L122.114 20.9501C122.564 20.9909 122.754 21.1541 122.754 21.5009C122.754 21.9361 122.386 22.1741 121.719 22.1741C121.194 22.1741 120.778 22.0177 120.492 21.7185L120.465 21.6913L120.015 22.1401L120.042 22.1673C120.458 22.5753 120.976 22.7589 121.725 22.7589C122.761 22.7589 123.402 22.2761 123.402 21.4941C123.402 20.5897 122.707 20.4197 122.182 20.3721L122.175 20.3653Z" fill="white"/>
<path d="M127.728 18.6109H126.89L125.126 20.6373V16.809H124.465V22.7045H125.126V21.5213L125.868 20.6713L127.122 22.6841L127.136 22.7045H127.953L126.325 20.1885L127.728 18.6109Z" fill="white"/>
<path d="M129.616 16.8021H128.88V17.5365H129.616V16.8021Z" fill="white"/>
<path d="M129.575 18.611H128.914V22.7045H129.575V18.611Z" fill="white"/>
<path d="M132.436 18.5565C131.38 18.5565 130.747 19.3385 130.747 20.6509C130.747 21.9633 131.387 22.7453 132.546 22.7453C133.268 22.7453 133.656 22.5005 134.044 22.1129L134.072 22.0857L133.615 21.6845L133.588 21.7117C133.261 22.0381 132.988 22.1605 132.559 22.1605C131.83 22.1605 131.421 21.6913 131.408 20.8481H134.126V20.5489C134.126 19.3045 133.493 18.5565 132.436 18.5565ZM131.53 19.7125C131.701 19.3385 132.034 19.1277 132.436 19.1277C132.838 19.1277 133.172 19.3385 133.343 19.7125C133.431 19.9097 133.445 20.0389 133.465 20.3313H131.408C131.421 20.0457 131.435 19.9165 131.523 19.7125H131.53Z" fill="white"/>
<path d="M135.298 23.3709C135.298 23.7653 135.155 23.9217 134.794 23.9217H134.44V24.5133H134.903C135.564 24.5133 135.966 24.0985 135.966 23.3981V18.611H135.305V23.3709H135.298Z" fill="white"/>
<path d="M136 16.8021H135.264V17.5365H136V16.8021Z" fill="white"/>
</svg>
