<svg width="86" height="33" viewBox="0 0 86 33" fill="none" xmlns="http://www.w3.org/2000/svg">
<path d="M11.3144 17.4758L3.73758 28.4508C3.24018 28.9336 2.34078 28.886 1.73436 28.3352C1.73436 28.3352 1.43456 28.104 0.862214 27.5328C0.732754 27.4104 0.412503 27.0024 0.55559 26.4109C1.29828 24.1669 3.45139 19.3049 4.06462 17.7614C4.21452 17.2922 4.32355 17.0338 4.32355 16.721C4.32355 16.4082 4.21452 16.143 4.06462 15.6806C3.45139 14.137 1.29828 9.27506 0.55559 7.03109C0.419317 6.4395 0.732754 6.0247 0.862214 5.9091C1.43456 5.33791 1.73436 5.10671 1.73436 5.10671C2.06142 4.80752 2.47705 4.65792 2.86543 4.65792C3.19249 4.65792 3.51273 4.76672 3.73758 4.99112L11.3144 15.9662C11.7028 16.5578 11.6891 16.9046 11.3144 17.4826V17.4758ZM24.0559 15.5922L9.32477 1.12876C9.0386 0.836366 8.62978 0.693567 8.21414 0.686768H8.14602C7.64863 0.686768 7.11714 0.897565 6.70151 1.27836C6.70151 1.27836 6.2927 1.57756 5.5432 2.33235C4.79369 3.08714 5.03899 3.55633 5.5432 4.29072C6.04741 5.01831 13.413 15.633 13.413 15.633C13.9717 16.4966 13.9581 16.9386 13.413 17.809C13.413 17.809 6.04741 28.4236 5.5432 29.1512C5.03899 29.8788 4.79369 30.3548 5.5432 31.1096C6.29951 31.8644 6.70151 32.1636 6.70151 32.1636C6.9468 32.388 7.22616 32.5512 7.51234 32.6464C7.94841 32.83 8.37767 32.8504 8.81375 32.6464C9.01134 32.5716 9.18169 32.4628 9.33159 32.3132L24.0627 17.8498C24.3625 17.5574 24.492 17.163 24.4716 16.7618C24.4784 16.7482 24.4716 16.7346 24.4716 16.721C24.4716 16.7074 24.4784 16.6938 24.4716 16.6802C24.492 16.2722 24.3625 15.8846 24.0627 15.5922H24.0559Z" fill="white"/>
<path d="M31.2172 5.65063H32.2597V14.8509H31.2172V5.65063Z" fill="white"/>
<path d="M34.7194 8.051H35.7346V9.23419C36.1843 8.4998 36.8929 7.9082 38.0649 7.9082C39.7138 7.9082 40.6745 9.00979 40.6745 10.6282V14.8441H39.6593V10.873C39.6593 9.60818 38.9779 8.81939 37.7787 8.81939C36.5795 8.81939 35.7346 9.67618 35.7346 10.9478V14.8373H34.7194V8.0442V8.051Z" fill="white"/>
<path d="M41.7169 8.05103H42.8344L45.1237 13.6882L47.4268 8.05103H48.5169L45.553 14.8985H44.6604L41.7101 8.05103H41.7169Z" fill="white"/>
<path d="M52.6734 14.1234C53.6068 14.1234 54.2678 13.7426 54.8197 13.1646L55.4534 13.729C54.772 14.4906 53.9407 15.0006 52.6461 15.0006C50.7792 15.0006 49.2461 13.5658 49.2461 11.451C49.2461 9.47907 50.6293 7.90149 52.5098 7.90149C54.5267 7.90149 55.685 9.50627 55.685 11.5054C55.685 11.6006 55.685 11.7026 55.6714 11.859H50.275C50.4181 13.2938 51.4742 14.1166 52.6734 14.1166V14.1234ZM54.663 11.0499C54.5471 9.81227 53.8317 8.76508 52.4894 8.76508C51.3175 8.76508 50.4249 9.73747 50.275 11.0499H54.663Z" fill="white"/>
<path d="M56.8092 13.9806L57.3202 13.2598C58.0561 13.8106 58.8737 14.1302 59.6777 14.1302C60.4817 14.1302 61.0881 13.7086 61.0881 13.049V13.0218C61.0881 12.335 60.2841 12.0766 59.3916 11.825C58.3218 11.5258 57.1362 11.1518 57.1362 9.9074V9.8802C57.1362 8.71062 58.1106 7.93542 59.4529 7.93542C60.2841 7.93542 61.204 8.22782 61.9058 8.68342L61.4425 9.44501C60.8088 9.03701 60.0865 8.78541 59.4256 8.78541C58.6216 8.78541 58.1106 9.20701 58.1106 9.7714V9.7986C58.1106 10.4446 58.9555 10.6894 59.8617 10.9682C60.9178 11.281 62.0489 11.689 62.0489 12.913V12.9402C62.0489 14.2253 60.9791 14.9801 59.6232 14.9801C58.6489 14.9801 57.5655 14.5993 56.8024 13.9806H56.8092Z" fill="white"/>
<path d="M64.2225 13.049V8.94864H63.2754V8.05785H64.2225V6.00427H65.2377V8.05785H67.3976V8.94864H65.2377V12.9198C65.2377 13.7494 65.7011 14.0486 66.3824 14.0486C66.7231 14.0486 67.0161 13.9806 67.3704 13.8106V14.681C67.0161 14.8646 66.6345 14.9734 66.1439 14.9734C65.0538 14.9734 64.2225 14.4362 64.2225 13.0558V13.049Z" fill="white"/>
<path d="M73.162 5.45349H74.3203V6.56868H73.162V5.45349ZM73.2301 8.05786H74.2454V14.851H73.2301V8.05786Z" fill="white"/>
<path d="M76.4735 8.051H77.4887V9.23419C77.9384 8.4998 78.6471 7.9082 79.819 7.9082C81.4679 7.9082 82.4286 9.00979 82.4286 10.6282V14.8441H81.4134V10.873C81.4134 9.60818 80.732 8.81939 79.5328 8.81939C78.3336 8.81939 77.4887 9.67618 77.4887 10.9478V14.8373H76.4735V8.0442V8.051Z" fill="white"/>
<path d="M30.1951 18.6182H32.2732L34.0993 24.5817L36.0752 18.5978H37.7378L39.7137 24.5817L41.5398 18.6182H43.5703L40.5586 27.4853H38.8689L36.8793 21.7257L34.8897 27.4853H33.1999L30.1882 18.6182H30.1951Z" fill="white"/>
<path d="M44.4355 20.6854H46.3502V22.0453C46.7386 21.1138 47.3722 20.5086 48.5033 20.563V22.5621H48.4011C47.1269 22.5621 46.3502 23.3305 46.3502 24.9421V27.4309H44.4355V20.6922V20.6854Z" fill="white"/>
<path d="M49.2938 24.0921V24.0649C49.2938 22.1269 50.8541 20.5562 52.9596 20.5562C55.065 20.5562 56.5981 22.0997 56.5981 24.0377V24.0649C56.5981 26.0029 55.0377 27.5737 52.9323 27.5737C50.8269 27.5737 49.287 26.0301 49.287 24.0921H49.2938ZM54.7107 24.0921V24.0649C54.7107 23.0721 53.9952 22.2017 52.9323 22.2017C51.8694 22.2017 51.1812 23.0449 51.1812 24.0377V24.0649C51.1812 25.0577 51.8966 25.9281 52.9596 25.9281C54.0225 25.9281 54.7107 25.0849 54.7107 24.0921Z" fill="white"/>
<path d="M57.6542 24.0921V24.0649C57.6542 22.1405 59.1259 20.5562 61.1973 20.5562C62.4714 20.5562 63.2618 20.9845 63.8955 21.6849L62.7235 22.9429C62.2943 22.4873 61.865 22.2017 61.1836 22.2017C60.2229 22.2017 59.5484 23.0449 59.5484 24.0377V24.0649C59.5484 25.0985 60.2161 25.9281 61.2654 25.9281C61.9059 25.9281 62.3488 25.6493 62.8189 25.2141L63.9432 26.3429C63.2891 27.0569 62.5328 27.5737 61.1836 27.5737C59.1532 27.5737 57.6678 26.0165 57.6678 24.0921H57.6542Z" fill="white"/>
<path d="M65.1628 18.2441H67.0775V27.424H65.1628V18.2441Z" fill="white"/>
<path d="M68.4606 25.4861V25.4589C68.4606 23.9901 69.5848 23.3101 71.186 23.3101C71.8674 23.3101 72.358 23.4257 72.835 23.5889V23.4733C72.835 22.6777 72.3444 22.2425 71.3836 22.2425C70.6546 22.2425 70.1367 22.3785 69.5167 22.6097L69.0397 21.1478C69.7824 20.8214 70.5115 20.6038 71.663 20.6038C72.7055 20.6038 73.4618 20.8826 73.9456 21.3586C74.4498 21.8617 74.6746 22.6029 74.6746 23.5073V27.4173H72.8213V26.6897C72.358 27.2065 71.7107 27.5465 70.7772 27.5465C69.5031 27.5465 68.4606 26.8189 68.4606 25.4861ZM72.8622 25.0441V24.7041C72.5351 24.5545 72.1059 24.4525 71.6426 24.4525C70.8249 24.4525 70.3207 24.7789 70.3207 25.3841V25.4113C70.3207 25.9281 70.75 26.2273 71.3632 26.2273C72.2558 26.2273 72.8622 25.7377 72.8622 25.0441Z" fill="white"/>
<path d="M75.5604 20.6853H77.5023L78.5857 24.772L79.8598 20.6581H81.5087L82.7965 24.7856L83.9072 20.6853H85.8082L83.7027 27.4784H81.9789L80.6775 23.3441L79.3556 27.4784H77.6386L75.5604 20.6853Z" fill="white"/>
</svg>
