<svg width="159" height="17" viewBox="0 0 159 17" fill="none" xmlns="http://www.w3.org/2000/svg">
<path d="M23.6893 7.96612C23.4168 7.76892 23.0965 7.65332 22.749 7.65332C22.2244 7.65332 21.7474 7.91172 21.4204 8.34011C21.1546 8.68691 20.9911 9.1493 20.9911 9.6729C20.9911 10.3665 21.2841 10.9513 21.727 11.3117C22.02 11.5497 22.3743 11.6857 22.7558 11.6857C23.6961 11.6857 24.4593 10.8561 24.4933 9.74769C24.4933 9.7205 24.4933 9.6933 24.4933 9.6661C24.4933 8.9317 24.1731 8.31291 23.6893 7.95932V7.96612Z" fill="white"/>
<path d="M38.7747 7.63977C37.7935 7.63977 37.1803 8.39456 37.1803 9.69335C37.1803 10.9921 37.7594 11.7061 38.7406 11.7061C39.6468 11.7061 40.3214 10.9105 40.3214 9.63215C40.3214 8.35376 39.7422 7.63977 38.7815 7.63977H38.7747Z" fill="white"/>
<path d="M61.9616 8.10217C61.9616 7.44938 62.7111 7.39498 63.1608 7.39498C63.5628 7.39498 64.469 7.53778 64.469 8.10217V12.1753H65.164V8.12937C65.164 7.47658 66.0975 7.42218 66.5268 7.42218C66.9833 7.42218 67.6783 7.50378 67.6783 8.12937V12.1753H68.346V8.41497C68.346 7.36778 67.358 6.97339 66.5268 7.00059C65.6206 7.00059 65.5933 7.02779 64.8438 7.53778C64.2305 7.02779 64.067 7.00059 63.2426 7.00059C62.7861 6.97339 62.2273 7.08219 61.9616 7.51058V6.97339H61.2666V12.1753H61.9616V8.10217Z" fill="white"/>
<path d="M72.189 4.79065H71.5212V5.89224H72.189V4.79065Z" fill="white"/>
<path d="M72.189 6.97339H71.5212V12.1753H72.189V6.97339Z" fill="white"/>
<path d="M75.5208 10.1354C75.4118 10.3053 75.3845 10.5841 75.3845 10.7881C75.3845 11.7741 76.318 12.1753 77.122 12.1753H77.4967C77.6807 12.1753 78.8868 11.5837 78.8868 11.5837V12.1753H79.5817V8.41497C79.5817 7.39498 78.7028 7.00059 77.8715 7.00059L77.122 6.97339C76.2907 6.97339 75.4118 7.36778 75.4118 8.38777V8.53057H76.0795C76.0795 7.51058 76.7472 7.40178 77.5513 7.40178C78.3008 7.40178 78.914 7.62618 78.914 8.53057V8.81617C78.219 9.09496 75.8683 9.49616 75.5208 10.1422V10.1354ZM78.8868 10.8153C78.8868 11.4069 77.4968 11.7469 77.0402 11.7469C76.427 11.7469 76.025 11.3253 76.025 10.6725C76.025 10.4753 76.0522 10.3053 76.1817 10.1625C76.4202 9.91095 78.5052 9.23096 78.8799 9.23096V10.8153H78.8868Z" fill="white"/>
<path d="M84.4944 11.7469C83.7176 11.7469 83.0771 11.5497 83.0771 10.6181H82.4366C82.4366 11.8625 83.2611 12.1753 84.3036 12.1753H84.8896C85.5573 12.1753 86.4635 11.7537 86.4635 11.0737V10.4549C86.4635 9.09496 83.1521 9.38056 83.1521 8.61897C83.1521 7.68738 83.4451 7.42898 84.4603 7.42898C85.2643 7.42898 85.7958 7.59898 85.7958 8.55777H86.4635V8.07497C86.4635 7.22498 85.2643 6.97339 84.6715 6.97339L84.1128 7.00059C83.4723 7.00059 82.4843 7.44938 82.4843 8.24497V8.70057C82.4843 9.86335 85.7958 9.43496 85.7958 10.5093C85.7958 11.5837 85.5573 11.7537 84.4876 11.7537L84.4944 11.7469Z" fill="white"/>
<path d="M89.9862 11.271C89.9862 11.8082 90.4427 12.1753 90.9742 12.1753H91.5329V11.781C91.2672 11.8082 90.6812 11.8354 90.6812 11.3866V7.4018H91.5602V6.98021H90.6267V5.51143L89.9862 5.22583V6.98021H89.0255V7.4018H89.9862V11.2778V11.271Z" fill="white"/>
<path d="M96.0504 12.1753H96.7726C97.6243 12.1753 98.5101 11.8081 98.5101 10.7881V8.41497C98.5101 7.42218 97.6039 7.00059 96.7726 7.00059L96.0504 6.97339C95.2259 6.97339 94.3129 7.42898 94.3129 8.41497V10.7881C94.3129 11.8081 95.1919 12.1753 96.0504 12.1753ZM95.0079 8.49657C95.0079 7.61938 95.7301 7.39498 96.4251 7.39498C97.1201 7.39498 97.8151 7.64658 97.8151 8.49657V10.8153C97.8151 11.6381 97.0111 11.7741 96.4251 11.7741C95.8392 11.7741 95.0079 11.6585 95.0079 10.8153V8.49657Z" fill="white"/>
<path d="M107.613 11.7469C106.836 11.7469 106.196 11.5497 106.196 10.6181H105.555C105.555 11.8625 106.387 12.1753 107.402 12.1753H107.988C108.656 12.1753 109.589 11.7537 109.589 11.0737V10.4549C109.589 9.09496 106.25 9.38056 106.25 8.61897C106.25 7.68738 106.543 7.42898 107.586 7.42898C108.383 7.42898 108.894 7.59898 108.894 8.55777H109.562V8.07497C109.562 7.22498 108.383 6.97339 107.797 6.97339L107.211 7.00059C106.571 7.00059 105.583 7.44938 105.583 8.24497V8.70057C105.583 9.86335 108.894 9.43496 108.894 10.5093C108.894 11.5837 108.656 11.7537 107.613 11.7537V11.7469Z" fill="white"/>
<path d="M113.187 11.8081C113.48 12.1209 113.909 12.2025 114.304 12.2025C115.238 12.2025 116.682 12.1141 116.682 10.7881V8.41497C116.682 7.31338 115.585 7.00059 114.733 7.00059C114.277 6.97339 113.343 7.05499 113.105 7.53778V6.97339H112.519V14.6369H113.187V11.8081ZM113.187 8.53057C113.187 7.68058 113.936 7.42898 114.604 7.42898C115.272 7.42898 116.049 7.68058 116.049 8.53057V10.8221C116.049 11.6449 115.224 11.7809 114.604 11.7809C113.984 11.7809 113.187 11.6381 113.187 10.8221V8.53057Z" fill="white"/>
<path d="M121.22 12.1753H121.97C122.801 12.1753 123.68 11.8081 123.68 10.7881V8.41497C123.68 7.42218 122.801 7.00059 121.97 7.00059L121.22 6.97339C120.416 6.97339 119.51 7.42898 119.51 8.41497V10.7881C119.51 11.8081 120.396 12.1753 121.22 12.1753ZM120.178 8.49657C120.178 7.61938 120.927 7.39498 121.595 7.39498C122.263 7.39498 123.012 7.64658 123.012 8.49657V10.8153C123.012 11.6381 122.208 11.7741 121.595 11.7741C120.982 11.7741 120.178 11.6585 120.178 10.8153V8.49657Z" fill="white"/>
<path d="M127.066 11.271C127.066 11.8082 127.495 12.1753 128.054 12.1753H128.613V11.781C128.32 11.8082 127.761 11.8354 127.761 11.3866V7.4018H128.64V6.98021H127.707V5.51143L127.039 5.22583V6.98021H126.105V7.4018H127.066V11.2778V11.271Z" fill="white"/>
<path d="M132.136 9.91095L132.831 9.23095L134.595 12.1753H135.345L133.369 8.75496L135.236 6.97338H134.595L132.115 9.31935V3.60742H131.447V12.1753H132.136V9.91095Z" fill="white"/>
<path d="M137.982 10.1354C137.873 10.3053 137.852 10.5841 137.852 10.7881C137.852 11.7741 138.786 12.1753 139.59 12.1753H139.965C140.148 12.1753 141.355 11.5837 141.355 11.5837V12.1753H142.077V8.41497C142.077 7.39498 141.198 7.00059 140.367 7.00059L139.59 6.97339C138.765 6.97339 137.88 7.36778 137.88 8.38777V8.53057H138.575C138.575 7.51058 139.215 7.40178 140.019 7.40178C140.769 7.40178 141.382 7.62618 141.382 8.53057V8.81617C140.687 9.09496 138.363 9.49616 137.989 10.1422L137.982 10.1354ZM141.375 10.8153C141.375 11.4069 139.958 11.7469 139.501 11.7469C138.888 11.7469 138.486 11.3253 138.486 10.6725C138.486 10.4753 138.513 10.3053 138.643 10.1625C138.888 9.91095 140.966 9.23096 141.368 9.23096V10.8153H141.375Z" fill="white"/>
<path d="M147.923 4.9062L147.262 4.62061L146.349 6.30019H146.799L147.923 4.9062Z" fill="white"/>
<path d="M145.593 8.12937C145.593 7.61938 146.69 7.42218 147.064 7.42218C147.494 7.42218 148.4 7.50378 148.4 8.12937V12.1753H149.095V8.38777C149.095 7.39498 148.264 6.97339 147.439 6.97339L146.983 7.00059C146.581 7.00059 145.886 7.28618 145.565 7.53778V6.97339H144.898V12.1753H145.593V8.12937Z" fill="white"/>
<path d="M0.25708 0.289062V16.7109H158.525V0.289062H0.25708ZM11.7654 13.0797L9.31243 6.42939L6.85952 13.0797L3.48675 3.31503H4.904L6.97534 9.31255L9.31925 2.96823L11.6563 9.31255L13.7277 3.31503H15.1449L11.7722 13.0797H11.7654ZM18.8516 7.87097C18.5994 7.67377 18.3405 7.61937 18.0544 7.61937C17.3457 7.61937 17.005 8.07497 16.8892 9.02696C16.8551 9.31255 16.8416 9.64575 16.8416 10.0197V12.6717H15.5333V6.60619H16.8416V7.57177C17.0187 7.06178 17.264 6.72178 17.6047 6.55179C17.7137 6.49739 17.8363 6.45659 17.9726 6.42939C18.0612 6.41579 18.1498 6.40899 18.2452 6.40899C18.2452 6.40899 18.2588 6.40899 18.2656 6.40899C18.6403 6.40899 18.981 6.49059 19.3149 6.68099L18.8652 7.86417L18.8516 7.87097ZM25.856 9.94495C25.7947 10.7337 25.4745 11.4205 24.9634 11.9577C24.3434 12.5765 23.5871 12.9233 22.7354 12.9233C21.8836 12.9233 21.141 12.5765 20.5414 11.9713C19.9418 11.3321 19.6351 10.5365 19.6351 9.64575C19.6351 8.75496 19.9418 7.95937 20.5414 7.34058C21.141 6.74218 21.9177 6.40899 22.7354 6.40899C23.553 6.40899 24.3502 6.73538 24.9498 7.36098C25.5494 7.97977 25.8764 8.77536 25.8764 9.64575C25.8764 9.74775 25.8765 9.84295 25.8628 9.93815L25.856 9.94495ZM31.4705 8.35376C31.0889 7.89137 30.5438 7.63977 29.9102 7.63977C28.8609 7.63977 28.1659 8.41496 28.1659 9.63215C28.1659 10.8493 28.854 11.6449 29.9783 11.6449C30.5983 11.6449 31.0821 11.4137 31.4637 10.8901V12.4949C30.9935 12.7873 30.4484 12.9233 29.8352 12.9233C28.0568 12.9233 26.8236 11.5905 26.8236 9.66615C26.8236 7.74177 28.0909 6.40899 29.9579 6.40899C30.537 6.40899 31.0276 6.52459 31.4637 6.77618V8.34697L31.4705 8.35376ZM35.0817 6.86458L34.2982 7.46298V12.6717H32.9763V8.31297L32.1995 8.91136V7.57177L32.9763 6.97338V2.77103H34.2982V6.12339L35.0817 5.5454V6.86458ZM41.5887 12.6785H40.2805V11.9033C39.8308 12.5833 39.2108 12.9301 38.4136 12.9301C36.8328 12.9301 35.838 11.7129 35.838 9.65935C35.838 7.60577 36.8873 6.42259 38.3795 6.42259C39.3062 6.42259 39.9739 6.85098 40.2805 7.62617V6.64019H41.5887V12.6853V12.6785ZM48.6273 13.0525L46.9034 8.94536L45.1796 13.0525L42.2292 6.62659H43.483L45.2 10.3529L46.9102 6.28659L48.6205 10.3529L50.3307 6.62659H51.5844L48.6341 13.0525H48.6273ZM157.905 16.0649H54.4938V0.948655H157.905V16.0581V16.0649Z" fill="white"/>
</svg>
