<svg width="30" height="39" viewBox="0 0 30 39" fill="none" xmlns="http://www.w3.org/2000/svg">
<path fill-rule="evenodd" clip-rule="evenodd" d="M14.3827 19.2444C14.217 19.1072 14.0513 18.9967 13.9408 18.8862C13.3332 18.3908 12.7273 17.8686 12.1198 17.3748C12.0377 17.3062 11.9875 17.2074 11.9825 17.1003V0.469784C12.0679 0.489869 12.1516 0.516649 12.2302 0.551798C12.9968 0.904963 13.6881 1.4004 14.2722 2.00797C14.3526 2.1084 14.3927 2.23728 14.3827 2.36616V19.2444ZM21.1966 0.084818C21.8611 0.18357 22.5105 0.369358 23.1281 0.635487C23.4863 0.772735 23.5968 0.965218 23.5968 1.35018C23.57 4.97891 23.5968 8.58085 23.5968 12.2079C23.6035 12.3769 23.5332 12.5393 23.4043 12.6481C22.7699 13.1988 22.1356 13.7745 21.5012 14.352C21.4142 14.4323 21.3221 14.506 21.225 14.5713C21.1983 9.70562 21.1983 4.89522 21.1983 0.084818H21.1966ZM16.038 18.9699V2.00797C16.0247 1.83892 16.0983 1.67322 16.2305 1.56777C16.5619 1.32006 16.8649 1.07234 17.2515 0.797842V17.7313C17.2616 17.8702 17.1996 18.0058 17.0858 18.0895C16.7276 18.364 16.3962 18.667 16.038 18.9699ZM18.465 16.9078V0.525018C18.455 0.434635 18.4817 0.345925 18.537 0.273953C18.5855 0.228762 18.6474 0.200308 18.7144 0.195286C18.8985 0.17018 19.6802 0.00447732 19.6802 0.00447732V15.6441C19.6835 15.7898 19.6232 15.932 19.5145 16.0291C19.2115 16.2768 18.9353 16.5245 18.6592 16.7706C18.5989 16.8225 18.5353 16.8677 18.4667 16.9078H18.465ZM9.30616 0.00112979C9.62752 -0.0038915 9.94889 0.00782485 10.2686 0.0362789C10.379 0.0463214 10.4644 0.0613853 10.4644 0.109924V15.9454C10.4108 15.9052 10.3556 15.8684 10.2987 15.8349C10.0008 15.5922 9.71456 15.3362 9.44341 15.065C9.35972 14.9863 9.30951 14.8776 9.30616 14.7621V0.00112979ZM8.03745 0.220393V13.8281C7.62403 13.4699 7.26584 13.1402 6.90598 12.8105C6.85912 12.7468 6.83903 12.6682 6.85075 12.5912V0.88153C6.82899 0.761019 6.89929 0.643855 7.01645 0.607033C7.34786 0.469784 7.65248 0.359315 8.03745 0.222067V0.220393ZM5.14016 11.217C2.49227 8.82522 2.46381 4.37133 5.14016 1.92596V11.217ZM25.858 10.0621V3.05408C27.2372 4.95045 27.2924 8.03018 25.858 10.0638V10.0621Z" fill="white"/>
<path fill-rule="evenodd" clip-rule="evenodd" d="M23.108 38.886L22.2879 33.2304L21.4058 38.886H20.4116L21.5129 32.0119H23.0963L24.1976 38.886H23.1063H23.108ZM2.65459 35.2472L2.25958 38.9228H0.769932L0 32.0236H1.05615L1.63862 37.4633L2.1625 32.0219H3.20861L3.75091 37.5018L4.31329 32.0219H5.26064L4.49071 38.9212H3.0496L2.65292 35.2456L2.65459 35.2472ZM8.04244 38.9228C7.98386 38.7454 7.94369 38.6366 7.94369 38.0759V36.9913C7.94369 36.3503 7.7261 36.1142 7.23234 36.1142H6.85741V38.9228H5.77114V32.0236H7.40976C8.53453 32.0236 9.01824 32.5458 9.01824 33.6103V34.1526C9.01824 34.8623 8.79061 35.3259 8.30689 35.5519C8.84919 35.7778 9.02829 36.3 9.02829 37.0198V38.0843C9.0082 38.3688 9.04837 38.6534 9.14712 38.9212H8.04077L8.04244 38.9228ZM6.85909 33.0094V35.1284H7.28422C7.68928 35.1284 7.93532 34.951 7.93532 34.3986V33.7191C7.93532 33.2253 7.76794 33.0094 7.38298 33.0094H6.85909ZM9.57393 33.6789C9.57393 32.5742 10.1564 31.9449 11.2226 31.9449C12.2888 31.9449 12.8713 32.5759 12.8713 33.6789V37.2658C12.8713 38.3688 12.2888 38.9998 11.2226 38.9998C10.1564 38.9998 9.57393 38.3688 9.57393 37.2658V33.6789ZM10.6602 37.3344C10.6602 37.8265 10.8778 38.014 11.2226 38.014C11.5674 38.014 11.785 37.8265 11.785 37.3344V33.6103C11.785 33.1182 11.5674 32.9308 11.2226 32.9308C10.8778 32.9308 10.6602 33.1182 10.6602 33.6103V37.3361V37.3344ZM16.6473 36.3486V37.2658C16.6473 38.3688 16.0949 38.9998 15.0287 38.9998C13.9625 38.9998 13.4102 38.3688 13.4102 37.2658V33.6789C13.4102 32.5742 13.9625 31.9449 15.0287 31.9449C16.0949 31.9449 16.6473 32.5759 16.6473 33.6789V34.3484H15.6212V33.6086C15.6212 33.1165 15.4037 32.9291 15.0589 32.9291C14.7141 32.9291 14.4965 33.1165 14.4965 33.6086V37.3344C14.4965 37.8265 14.7141 38.0039 15.0589 38.0039C15.4037 38.0039 15.6212 37.8265 15.6212 37.3344V36.3486H16.6473ZM17.2096 32.0219H18.2942V37.9353H20.0818V38.9212H17.2096V32.0219ZM26.8522 35.2456L26.4572 38.9212H24.9659L24.1959 32.0219H25.2521L25.8346 37.4616L26.3584 32.0202H27.4045L27.9468 37.5001L28.5092 32.0202H29.4566L28.6867 38.9195H27.2455L26.8505 35.2439L26.8522 35.2456ZM4.50243 27.7806L5.23721 22.925H6.73523V29.764H5.71758V24.8599L4.97443 29.764H3.95678L3.15337 24.9268V29.764H2.21439V22.925H3.71241L4.50577 27.7806H4.50243ZM11.5004 22.925H13.2027C14.2789 22.925 14.8078 23.5208 14.8078 24.6155V28.0752C14.8078 29.1698 14.2789 29.7657 13.2027 29.7657H11.5004V22.925ZM12.5767 23.9025V28.7882H13.1842C13.5274 28.7882 13.7332 28.6124 13.7332 28.1237V24.567C13.7332 24.0782 13.5274 23.9025 13.1842 23.9025H12.5767ZM16.5703 25.8072H18.0482V26.7847H16.5703V28.7882H18.4298V29.7657H15.494V22.9267H18.4298V23.9041H16.5703V25.8089V25.8072ZM21.4543 22.925H22.5305V29.764H21.4543V22.925ZM24.2729 24.8113V29.7657H23.3038V22.925H24.6546L25.7609 27.019V22.925H26.72V29.764H25.6136L24.2729 24.8096V24.8113ZM9.90367 29.8075L9.08519 24.1519L8.20312 29.8075H7.21058L8.31192 22.935H9.8953L10.9966 29.8092H9.90534L9.90367 29.8075Z" fill="white"/>
</svg>
