<?xml version="1.0" encoding="UTF-8"?>
<svg id="Warstwa_1" data-name="Warstwa 1" xmlns="http://www.w3.org/2000/svg" viewBox="0 0 104.35 122.41">
  <defs>
    <style>
      .cls-1 {
        fill: #fff;
      }
    </style>
  </defs>
  <path class="cls-1" d="m103.14,44.09c-.39-2.01-.91-3.98-1.54-5.84l.17,5.84c.01.48-.2.84-.5.83h-.09c-.34-.01-.64-.49-.66-1.04l-.33-10.69c-.02-.59.44-.73.67-.22l.49,1.12c1.32,3.01,2.31,6.37,2.97,9.84.11.56-.11,1.07-.46,1.06h0c-.32,0-.63-.38-.73-.9ZM12.64,8.49l4.79,67.7c.05.69-.63,1.04-1.1.57l-.84-.83C6.99,67.52,1.27,54.8.18,41.3-.92,27.55,2.98,15.38,10.63,8.3l.76-.7c.42-.39,1.19.16,1.24.9Zm2.14,62.84L10.59,13.04c0-.12-.14-.21-.2-.13C4.64,19.72,1.82,30.08,2.73,41.6c.89,11.29,5.24,22.03,11.83,29.83.09.1.23.04.22-.1ZM81.68,13.8c-.02-.42-.29-.81-.56-.79l-.36.02c-.8.04-3.01.13-3.6.1-.42-.05-.81.12-1.1.47l-.08.11c-.3.55-.43,1.29-.35,2.09l2.05,49.24c.05,1.31,1.36,1.57,1.48.3h0c0-.11,0-.21,0-.32l-2-48.89v-.12c-.03-.2,0-.39.05-.54.05-.04.12-.06.19-.06h.03c.4.02,1.42-.02,2.29-.06.27-.01.54.37.56.79l1.11,28.14c0,.2.07.4.18.53.66.82,1.3.27,1.27-.58l-1.18-30.45Zm13.7,8.3c-.4-1-.99-1.8-1.66-2.26-2.21-2.02-4.57-3.65-7.01-4.86h0c-.44-.21-.81.19-.78.86v.14c.3,8.1.86,23.13,1.02,27.47.02.67.41,1.25.84,1.29h0c.33.03.59-.34.57-.85-.14-3.74-.66-18.18-.94-25.78-.01-.32.17-.52.38-.4,1.9,1.05,3.75,2.39,5.5,3.97l.1.08c.37.24.69.67.92,1.22.22.54.32,1.16.29,1.73v.15c.18,6.56.39,13.11.61,19.6.02.6.36,1.12.74,1.13h0c.34,0,.59-.4.57-.93-.21-6.42-.41-12.91-.59-19.4.05-1.04-.14-2.16-.54-3.15Zm-34.57,1.04l4.76,97.66c.05.98-.33,2.48-2.18.94-.4-.33-.77-.66-1.11-.99-1.27-1.14-2.58-2.34-3.85-3.5-1.47-1.35-3.01-2.76-4.53-4.12-.31-.28-.55-.62-.73-1.03-.19-.4-.3-.84-.35-1.31v-.07S47.16,7.5,47.16,7.5c-.03-.48.29-.75.65-.56l.47.25c.48.26.96.58,1.41.95,3.89,3.28,7.32,7.24,10.25,11.77l.06.1c.53.96.82,2.07.82,3.14Zm3.05,96.32l-4.8-96.79v-.05c0-.47-.12-.96-.34-1.38-2.52-3.86-5.43-7.27-8.69-10.15-.39-.34-.81-.09-.78.47l5.33,98.94c.02.14.06.28.11.41.06.13.14.25.24.34,1.51,1.36,3.04,2.78,4.51,4.14,1.27,1.18,2.57,2.38,3.83,3.52l.03.03c.17.17.36.34.57.52ZM28.68,1.75l5.77,91.33c.04.63-.54,1-.96.61l-.73-.67c-1.72-1.58-3.29-3.17-4.82-4.72-.57-.58-1.15-1.16-1.72-1.74l-.08-.08-.07-.09c-.46-.65-.7-1.46-.69-2.28L20,4.2c-.12-.72-.05-1.41.21-1.94.27-.55.72-.9,1.27-.99,1.48-.4,2.93-.68,4.58-1L27.38,0c.23-.05.51.1.7.38l.24.34c.2.29.33.63.36.97v.06Zm3.36,85.89L26.69,4.26c-.04-.56-.52-1.07-.93-.98-1.14.24-2.2.47-3.27.77l-.1.02c-.06,0-.11.05-.14.11-.03.06-.04.14-.02.23l.03.25,5.27,79.59v.08c0,.15.02.29.09.42.54.55,1.08,1.1,1.62,1.65.59.6,1.18,1.21,1.78,1.82.43.43,1.05.08,1-.58ZM71.13,15.21c-1.49,1.25-2.78,2.42-4.03,3.56l-.03.02c-.36.34-.63.83-.8,1.42-.16.57-.22,1.23-.16,1.91l4.53,97.99c.03.54.5.76.78.37l.49-.68c.46-.64.91-1.27,1.35-1.9.09-.13.19-.26.28-.39.12-.17.2-.38.22-.61h0c.11-1.02-.77-1.6-1.3-.86-.09.13-.19.26-.28.39-.05.06-.09.13-.14.19l-4.28-94.19v-.08c-.03-.31-.01-.62.06-.88.07-.26.2-.49.36-.64.66-.6,1.32-1.21,2.02-1.84.3-.27.77.16.8.73l3.37,76.78c.06,1.29,1.38,1.4,1.52.13h0c0-.07,0-.15,0-.22l-3.49-80.91c-.02-.56-.48-1-.78-.74l-.49.42Zm-29.65-10.85l5.78,100.97c.03.58-.47.95-.86.64l-.64-.52c-.24-.19-.48-.37-.73-.53l-.12-.09c-1.54-1.39-3.07-2.89-4.54-4.48-.32-.34-.6-.76-.8-1.25-.2-.49-.32-1.01-.36-1.55L33.31.96c-.03-.43.23-.72.57-.63l.42.11c1.71.43,3.43.97,5.11,1.61.39.11.74.27,1.02.47.61.44,1,1.12,1.04,1.84Zm2.71,96.82c.39.38.95.02.91-.59L39.51,4.65l-.08-.03c-1.08-.4-2.18-.76-3.29-1.08-.34-.1-.6.19-.58.63l5.6,93.26c.01.21.06.41.14.6.08.19.18.35.31.49.85.92,1.71,1.81,2.58,2.67Z"/>
</svg>