<?xml version="1.0" encoding="UTF-8"?>
<svg id="Warstwa_2" data-name="Warstwa 2" xmlns="http://www.w3.org/2000/svg" viewBox="0 0 293.92 263.62">
  <defs>
    <style>
      .cls-1 {
        fill: #1d1d1b;
      }
    </style>
  </defs>
  <g id="Warstwa_1-2" data-name="Warstwa 1">
    <path class="cls-1" d="m288.95,52.05c-2.18-4.67-4.8-9.08-7.85-13.08l2.41,14.54c.2,1.19-.56,2.34-1.73,2.63l-.37.09c-1.34.33-2.69-.55-2.91-1.92l-4.37-26.4c-.24-1.44,1.51-2.35,2.55-1.32l2.26,2.23c6.13,6.05,11.08,13.42,14.79,21.53.6,1.32-.14,2.86-1.54,3.21h0c-1.29.32-2.65-.3-3.22-1.51ZM21.42,57.25l20.41,123.31c.21,1.29-1.21,2.22-2.31,1.52l-1.95-1.26C18.46,168.52,5.21,147.91,1.23,124.29c-4-23.75,1.85-47.76,16.06-65.89l1.44-1.84c.81-1.03,2.46-.61,2.68.68Zm13.91,115.14l-17.45-105.38c-.03-.21-.32-.27-.43-.09-10.52,16.23-14.59,36.47-11.21,56.53,3.35,19.89,13.66,37.48,28.63,49.22.2.16.5-.02.46-.27ZM202.52,3.23c-.16-.95-1.15-1.51-2.05-1.15l-1.17.47c-2.61,1.02-9.76,3.78-11.65,4.38-1.34.37-2.55,1.19-3.39,2.3l-.22.34c-.83,1.56-1.05,3.36-.62,5.08l18.33,110.73c.5,3.01,4.92,2.72,5.02-.33h0c-.02-.25-.03-.51-.05-.76l-18.31-110.58-.06-.26c-.12-.43-.09-.87.07-1.28.16-.16.36-.28.58-.33l.1-.03c1.28-.4,4.58-1.64,7.39-2.72.89-.34,1.87.22,2.03,1.16l10.56,63.79c.08.45.35.86.75,1.08,2.43,1.32,4.48-.54,4.16-2.51L202.52,3.23Zm50.19,3.18c-1.77-1.92-4.16-3.13-6.74-3.42C237.41.88,228.61-.12,219.79.01h0c-1.55.02-2.72,1.42-2.47,2.95l.05.33c3.08,18.59,8.86,53.46,10.55,63.62.26,1.56,1.76,2.59,3.31,2.28h0c1.2-.24,1.99-1.37,1.79-2.58-1.46-8.81-7.06-42.55-9.97-60.1-.12-.74.46-1.42,1.21-1.39,6.95.21,13.88,1.16,20.64,2.84l.38.06c1.41.13,2.72.78,3.69,1.83.97,1.05,1.51,2.41,1.54,3.84l.03.36c2.49,15.71,5.07,31.5,7.67,47.2.24,1.46,1.68,2.4,3.12,2.05h0c1.29-.32,2.11-1.57,1.89-2.88-2.59-15.63-5.16-31.36-7.63-47-.09-2.61-1.11-5.09-2.88-7.01Zm-112.17,39.32l35.44,214.06c.37,2.24-.46,5.76-6.53,2.52-1.3-.7-2.52-1.37-3.62-2.07-4.1-2.37-8.27-4.84-12.31-7.23-4.6-2.72-9.36-5.54-14.02-8.21-.93-.55-1.69-1.25-2.3-2.09-.61-.84-1.03-1.78-1.26-2.78l-.03-.15L100.54,26.06c-.16-.95.6-1.8,1.56-1.75l1.27.06c1.3.06,2.59.26,3.85.58,10.94,2.98,21.08,7.93,30.16,14.7l.19.15c1.7,1.54,2.75,3.64,2.97,5.92Zm29.83,211.28l-34.87-210.65v-.1c-.09-1-.53-1.93-1.25-2.62-7.77-5.77-16.35-10.13-25.56-12.97-1.08-.33-2.14.57-1.95,1.69l34.18,206.5c.08.31.22.61.41.87.2.28.45.51.75.69,4.65,2.67,9.42,5.49,14.04,8.22,4.04,2.39,8.22,4.87,12.31,7.23l.1.06c.56.36,1.18.72,1.85,1.09ZM54.99,31.65l29.14,176.04c.21,1.27-1.15,2.2-2.26,1.55l-1.9-1.12c-4.43-2.62-8.46-5.29-12.36-7.86-1.45-.96-2.88-1.91-4.32-2.84l-.2-.13-.17-.16c-1.18-1.12-1.87-2.62-1.97-4.23L36.23,43.59c-.38-1.24-.32-2.57.16-3.78.49-1.24,1.41-2.27,2.59-2.91,3.16-1.99,6.29-3.75,9.9-5.78l2.89-1.63c.52-.29,1.16-.25,1.64.1l.59.43c.5.37.85.91.97,1.52l.02.11Zm22.31,165.85L50.91,38.13c-.17-1.04-1.33-1.58-2.24-1.06-2.49,1.41-4.78,2.74-7.07,4.19l-.2.12c-.13.07-.24.18-.29.32-.06.14-.06.3,0,.44l.11.44,24.8,149.79v.16c.02.29.12.57.3.79,1.37.89,2.73,1.79,4.1,2.7,1.5.99,3.02,1.99,4.57,3,1.1.72,2.53-.21,2.32-1.51ZM169.27,18.19c-4.25,4.33-7.88,8.23-11.38,12l-.08.08c-.99,1.11-1.7,2.45-2.06,3.89-.36,1.41-.38,2.9-.06,4.31l36.22,218.81c.21,1.27,1.8,1.71,2.64.73l1.44-1.68c1.36-1.59,2.68-3.18,3.98-4.75.28-.33.55-.66.82-.99.35-.42.56-.95.58-1.5h0c.11-2.43-2.93-3.61-4.49-1.74-.27.33-.54.66-.82.99-.13.16-.27.32-.4.49l-34.97-211.27-.03-.17c-.15-.65-.15-1.34.02-1.99.16-.65.49-1.26.93-1.76,1.84-1.98,3.72-4,5.7-6.09.86-.91,2.39-.45,2.59.79l28.55,172.47c.5,3.01,4.91,2.74,5.04-.3h0c0-.17,0-.35-.03-.52l-30.2-182.44c-.2-1.22-1.7-1.69-2.57-.81l-1.42,1.45Zm-83.61,6.95l33.82,204.31c.2,1.23-1.08,2.16-2.19,1.59l-1.83-.95c-.67-.35-1.36-.66-2.07-.94l-.35-.17c-4.35-2.52-8.64-5.26-12.74-8.16-.9-.61-1.68-1.41-2.28-2.36-.61-.95-1.01-1.99-1.19-3.11L65.5,26.02c-.13-.81.41-1.59,1.22-1.73l1-.18c4.12-.74,8.32-1.28,12.49-1.6.98-.15,1.84-.16,2.58-.03,1.57.29,2.65,1.28,2.88,2.67Zm24.8,196.35c1.11.7,2.52-.23,2.3-1.52L80.91,27.53l-.21.02c-2.7.21-5.41.51-8.1.9-.83.12-1.4.91-1.27,1.75l30.51,184.32c.07.43.23.83.46,1.2.23.37.54.68.9.92,2.37,1.68,4.8,3.29,7.26,4.84Z"/>
  </g>
</svg>